<svg xmlns="http://www.w3.org/2000/svg" xmlns:xlink="http://www.w3.org/1999/xlink" xmlns:lucid="lucid" width="1662.31" height="1060"><g transform="translate(-70 -160.00000000000006)" lucid:page-tab-id="0_0"><path d="M240 186a6 6 0 0 1 6-6h1188a6 6 0 0 1 6 6v1008a6 6 0 0 1-6 6H246a6 6 0 0 1-6-6z" stroke="#232f3e" fill="#fff" fill-opacity="0"/><path d="M240 180h56v56h-56v-56z" stroke="#fff" stroke-opacity="0" fill="#232f3e"/><path d="M280.88 221.22h-25c-4.13.05-7.57-3.1-7.9-7.2v-.64c-.15-3.4 1.97-6.38 5.25-7.36v-.66c.12-4.22 2.44-7.75 6.24-9.57 4.13-1.86 8.73-.96 11.8 2.3 1.1 1.1 1.85 2.2 2.45 3.6 1.2-1 2.72-1.32 4.24-.9 2.24.8 3.68 2.74 3.76 5.1 3.68.65 6.32 3.8 6.28 7.56 0 7.07-7.04 7.73-7.12 7.76zm-26.7-13.88c-2.83.6-4.75 3.14-4.6 6.04v.53c.3 3.33 3.1 5.84 6.4 5.76h24.98c3.04-.3 5.4-2.64 5.68-5.7.28-3.43-2.24-6.5-5.68-6.78-.44-.05-.72-.44-.64-.87.08-1.83-1-3.44-2.72-4.13-1.32-.37-2.64.13-3.44 1.24-.2.25-.44.38-.76.33-.28-.05-.48-.24-.6-.5-.6-1.6-1.4-2.85-2.6-4.04-2.7-2.8-6.6-3.6-10.13-2-3.24 1.6-5.2 4.63-5.32 8.24-.04.4-.04.74 0 1.14.04.4-.2.76-.6.84z" stroke="#fff" stroke-opacity="0" fill="#fff"/><use xlink:href="#a" transform="matrix(1,0,0,1,311,200.00000000000006) translate(0 14.4)"/><use xlink:href="#b" transform="matrix(1,0,0,1,311,200.00000000000006) translate(45.3 14.4)"/><path d="M340 286a6 6 0 0 1 6-6h868a6 6 0 0 1 6 6v748a6 6 0 0 1-6 6H346a6 6 0 0 1-6-6z" stroke="#248814" stroke-width="2" fill="#fff" fill-opacity="0"/><path d="M340 280h56v56h-56v-56z" stroke="#fff" stroke-opacity="0" fill="#248814"/><path d="M371.76 308.3h-1.18v-1.1c-.12-1.73-1.47-3.07-3.2-3.2-1.9-.13-3.54 1.3-3.67 3.2v1.07h-1.17c-.44 0-.8.36-.8.8v6.13c0 .44.35.8.8.8h9.23c.44 0 .8-.36.8-.8v-6.1c0-.44-.36-.8-.8-.8zm-6.4-1.06c.1-1.03 1-1.77 2-1.67.9.08 1.58.76 1.67 1.67v1.06h-3.72zm5.65 7.08h-7.67v-4.42h7.63z" stroke="#fff" stroke-opacity="0" fill="#fff"/><path d="M382.27 305.75c-.08-2.45-1.58-4.48-3.87-5.3-1.58-.47-3.16-.14-4.4.9-.68-1.45-1.47-2.6-2.6-3.76-3.24-3.36-7.94-4.3-12.18-2.4-4.04 1.9-6.4 5.63-6.54 10.05v.7c-3.4.98-5.66 4.08-5.5 7.65v.63c.38 4.28 3.92 7.52 8.2 7.47h26s7.42-.63 7.42-8.1c.04-3.9-2.66-7.2-6.53-7.86zm-.96 14.38h-25.9c-3.47.06-6.3-2.52-6.6-5.96v-.52c-.15-3.05 1.93-5.7 4.92-6.3.38-.12.63-.48.6-.9-.06-.4-.06-.73 0-1.14.07-3.78 2.1-6.94 5.52-8.6 1.25-.56 2.4-.8 3.83-.84 2.62.08 4.87 1.04 6.7 2.94 1.25 1.3 2.04 2.6 2.62 4.3.03.15.1.28.24.37.37.27.87.2 1.12-.17.83-1.18 2.25-1.67 3.62-1.3 1.8.72 2.87 2.4 2.83 4.32-.07.4.22.82.64.9 3.57.36 6.2 3.55 5.82 7.12-.3 3.13-2.7 5.52-5.82 5.85z" stroke="#fff" stroke-opacity="0" fill="#fff"/><use xlink:href="#c" transform="matrix(1,0,0,1,411.00000000000006,300.00000000000006) translate(0 14.4)"/><use xlink:href="#d" transform="matrix(1,0,0,1,411.00000000000006,300.00000000000006) translate(55.5 14.4)"/><use xlink:href="#e" transform="matrix(1,0,0,1,411.00000000000006,300.00000000000006) translate(116.4 14.4)"/><path d="M579.78 446a6 6 0 0 1 6-6h308a6 6 0 0 1 6 6v388a6 6 0 0 1-6 6h-308a6 6 0 0 1-6-6z" stroke="#d86613" stroke-width="2" fill="#fff" fill-opacity="0"/><path d="M579.78 440h56v56h-56v-56z" stroke="#fff" stroke-opacity="0" stroke-width="2" fill="#d86613"/><path d="M624.95 470.24h-3.74v-1.48h3.75v-17.94h-17.93v3.74h-1.5v-3.74c0-.82.68-1.5 1.5-1.5h17.93c.82 0 1.5.68 1.5 1.5v17.94c0 .8-.68 1.48-1.5 1.48zM608.53 486.67H590.6c-.83 0-1.5-.67-1.5-1.5v-17.93c0-.8.67-1.48 1.5-1.48h3.73v1.48h-3.74v17.94h17.93v-3.74H610v3.74c0 .82-.66 1.5-1.47 1.5z" stroke="#fff" stroke-opacity="0" stroke-width="2" fill="#fff"/><path d="M619.73 461.3v-1.52h-2.25c-.05-.8-.7-1.43-1.48-1.48v-2.25h-1.5v2.25h-2.23v-2.25h-1.5v2.25h-2.25v-2.25h-1.48v2.25h-2.25v-2.25h-1.5v2.25h-2.23v-2.25h-1.5v2.25c-.8.05-1.44.7-1.5 1.48h-2.24v1.5h2.25v2.25h-2.25V465h2.25v2.26h-2.25v1.48h2.25V471h-2.25v1.5h2.25v2.2h-2.25v1.52h2.25c.05.8.7 1.43 1.48 1.48v2.25h1.5v-2.25h2.25v2.25h1.5v-2.25h2.24v2.25h1.48v-2.25h2.25v2.25h1.5v-2.25h2.22v2.25h1.5v-2.25c.8-.05 1.43-.7 1.48-1.48h2.25v-1.5h-2.25v-2.23h2.25V471h-2.25v-2.26h2.25v-1.48h-2.25V465h2.25v-1.47h-2.25v-2.24zM616 476.07c0 .07-.07.14-.14.14H599.7c-.07 0-.14-.07-.14-.14v-16.16c0-.07.07-.14.14-.14h16.15c.08 0 .15.07.15.14z" stroke="#fff" stroke-opacity="0" stroke-width="2" fill="#fff"/><use xlink:href="#f" transform="matrix(1,0,0,1,650.7788165444473,460) translate(0 14.4)"/><use xlink:href="#g" transform="matrix(1,0,0,1,650.7788165444473,460) translate(41.95 14.4)"/><use xlink:href="#h" transform="matrix(1,0,0,1,650.7788165444473,460) translate(81.9 14.4)"/><path d="M480 364a6 6 0 0 1 6-6h568a6 6 0 0 1 6 6v630a6 6 0 0 1-6 6H486a6 6 0 0 1-6-6z" stroke="#d86613" stroke-width="2" fill="#fff" fill-opacity="0"/><path d="M480 358h56v56h-56v-56z" stroke="#fff" stroke-opacity="0" stroke-width="2" fill="#d86613"/><path d="M507.83 406.1c-.13 0-.27-.03-.37-.1l-17-9.8c-.27-.15-.4-.4-.4-.67v-19.85c0-.28.13-.53.4-.7l15.64-9c.3-.25.78-.13 1.02.2.1.16.14.32.14.48v8.6c0 .26-.14.5-.38.66l-7.83 4.47v10.42l8.82 5.07 7.7-4.48c.23-.16.5-.16.75 0l7.38 4.27c.28.1.4.35.4.67 0 .28-.12.53-.4.65L508.2 406c-.1.07-.23.12-.37.12zM491.6 395l16.64 9.63 14.3-8.3-5.95-3.42-7.95 4.6c-.27.12-.54.12-.8 0l-9.93-5.72c-.27-.16-.4-.4-.4-.68V380c0-.3.13-.54.4-.7l7.8-4.47V368l-14.16 8.2z" stroke="#fff" stroke-opacity="0" stroke-width="2" fill="#fff"/><path d="M525.13 394.6c-.15 0-.27-.04-.4-.13l-7.4-4.27c-.25-.14-.4-.37-.4-.7v-9.02l-7.8-4.5c-.27-.14-.4-.4-.4-.68v-8.6c0-.3.13-.55.4-.66.2-.15.5-.15.73 0l15.7 9c.25.14.38.4.38.7v18c0 .33-.14.56-.4.7-.13.1-.25.15-.4.15zm-6.68-5.57l5.98 3.44V376.2l-14.2-8.18v6.8l7.84 4.55c.26.14.42.37.4.68z" stroke="#fff" stroke-opacity="0" stroke-width="2" fill="#fff"/><use xlink:href="#f" transform="matrix(1,0,0,1,551.0000000000001,378) translate(0 14.4)"/><use xlink:href="#i" transform="matrix(1,0,0,1,551.0000000000001,378) translate(41.95 14.4)"/><use xlink:href="#h" transform="matrix(1,0,0,1,551.0000000000001,378) translate(103.80000000000001 14.4)"/><path d="M807.02 680c1.56 0 2.76 1.25 2.76 2.73v72.54c0 1.48-1.2 2.73-2.76 2.73H692.54c-1.56 0-2.76-1.25-2.76-2.73v-72.54c0-1.48 1.2-2.73 2.76-2.73zm-111.84 72.46h109.2v-66.92h-109.2zm8.88-6.86v-53.2h5.52v53.2zm14.4 0v-53.2h5.4v53.2zm14.28 0v-53.2h5.4v53.2zm14.28 0v-53.2h5.52v53.2zm14.4 0v-53.2h5.4v53.2zm14.28 0v-53.2h5.4v53.2zm14.28 0v-53.2h5.52v53.2zM797.02 500c1.56 0 2.76 1.25 2.76 2.73v72.54c0 1.48-1.2 2.73-2.76 2.73H682.54c-1.56 0-2.76-1.25-2.76-2.73v-72.54c0-1.48 1.2-2.73 2.76-2.73zm-111.84 72.46h109.2v-66.92h-109.2zm8.88-6.86v-53.2h5.52v53.2zm14.4 0v-53.2h5.4v53.2zm14.28 0v-53.2h5.4v53.2zm14.28 0v-53.2h5.52v53.2zm14.4 0v-53.2h5.4v53.2zm14.28 0v-53.2h5.4v53.2zm14.28 0v-53.2h5.52v53.2z" stroke="#000" stroke-opacity="0" fill="#d45b07"/><path d="M789.78 584a6 6 0 0 1 6-6h68a6 6 0 0 1 6 6v28a6 6 0 0 1-6 6h-68a6 6 0 0 1-6-6z" stroke="#000" stroke-opacity="0" fill="#fff" fill-opacity="0"/><use xlink:href="#j" transform="matrix(1,0,0,1,794.7788165444476,583) translate(-9.382716049382722 19.444444444444443)"/><path d="M789.56 764a6 6 0 0 1 6-6h68a6 6 0 0 1 6 6v23.13a6 6 0 0 1-6 6h-68a6 6 0 0 1-6-6z" stroke="#000" stroke-opacity="0" fill="#fff" fill-opacity="0"/><use xlink:href="#k" transform="matrix(1,0,0,1,794.5576330888949,763) translate(-8.20987654320988 17.77777777777778)"/><path d="M679.78 624a6 6 0 0 1 6-6h108a6 6 0 0 1 6 6v10a6 6 0 0 1-6 6h-108a6 6 0 0 1-6-6z" stroke="#000" stroke-opacity="0" fill="#fff" fill-opacity="0"/><path d="M740.78 661.5h-2v-21.83h2zm0-43.17h-2V596.5h2z" stroke="#3a414a" stroke-width=".05" fill="#3a414a"/><path d="M744.4 595.5h-9.26l4.64-14.26z" fill="#3a414a"/><path d="M745.8 596.5h-12.03l6-18.5zm-9.28-2h6.52l-3.26-10.03z" stroke="#3a414a" stroke-width=".05" fill="#3a414a"/><path d="M739.78 676.76l-4.64-14.26h9.27z" fill="#3a414a"/><path d="M739.78 680l-6-18.5h12zm-3.26-16.5l3.26 10.03 3.26-10.03z" stroke="#3a414a" stroke-width=".05" fill="#3a414a"/><use xlink:href="#l" transform="matrix(1,0,0,1,698.8652362975337,618.3333333333334) translate(0 14.222222222222223)"/><use xlink:href="#m" transform="matrix(1,0,0,1,698.8652362975337,618.3333333333334) translate(52.24691358024692 14.222222222222223)"/><path d="M420 669c-22.08 0-40-17.92-40-40s17.92-40 40-40 40 17.92 40 40-17.92 40-40 40zm0-76.8c-20.32 0-36.8 16.48-36.8 36.8 0 20.32 16.48 36.8 36.8 36.8 20.32 0 36.8-16.48 36.8-36.8 0-20.32-16.48-36.8-36.8-36.8z" stroke="#fff" stroke-opacity="0" stroke-width="3" fill="#693cc5"/><path d="M443.86 640.2h-3.06v-6.4c0-.9-.7-1.6-1.58-1.6h-4.83v-6.4c0-.9-.73-1.58-1.6-1.58h-11.2v-4.8h11.2c.87 0 1.6-.76 1.6-1.6V603.4c0-.9-.73-1.6-1.6-1.6h-25.6c-.88 0-1.6.7-1.6 1.6v14.42c0 .84.72 1.6 1.6 1.6h11.2v4.8h-11.2c-.88 0-1.6.7-1.6 1.6v6.38h-4.78c-.9 0-1.63.7-1.63 1.6v6.4h-3.06c-.87 0-1.58.73-1.58 1.58v8.03c0 .9.7 1.6 1.58 1.6h7.84c.92 0 1.63-.7 1.63-1.6v-8.02c0-.85-.7-1.6-1.62-1.6h-1.58v-4.8h8v4.8h-1.58c-.92 0-1.63.75-1.63 1.6v8.03c0 .9.7 1.6 1.62 1.6h8c.86 0 1.57-.7 1.57-1.6v-8.02c0-.85-.72-1.6-1.58-1.6h-3.2v-6.4c0-.88-.73-1.57-1.64-1.57h-3.16v-4.8h22.36v4.8h-3.16c-.92 0-1.63.7-1.63 1.6v6.4h-3.22c-.86 0-1.58.73-1.58 1.58v8.03c0 .9.72 1.6 1.58 1.6h8c.9 0 1.63-.7 1.63-1.6v-8.02c0-.85-.7-1.6-1.62-1.6h-1.58v-4.8h8v4.8h-1.74c-.86 0-1.58.75-1.58 1.6v8.03c0 .9.72 1.6 1.58 1.6h8.05c.88 0 1.6-.7 1.6-1.6v-8.02-.05c-.06-.85-.78-1.54-1.64-1.54zm-41.46 7.98h-4.63v-4.77h4.63zm12.8-4.77v4.78h-4.8v-4.77zm-6.38-27.22v-11.16h22.36v11.16zm20.78 32h-4.8v-4.77h4.8zm12.63 0h-4.8v-4.77h4.8z" stroke="#fff" stroke-opacity="0" stroke-width="3" fill="#693cc5"/><use xlink:href="#n" transform="matrix(1,0,0,1,350,678) translate(45.308641975308646 17.77777777777778)"/><use xlink:href="#o" transform="matrix(1,0,0,1,350,678) translate(26.234567901234563 44.44444444444444)"/><path d="M250 588h80v80h-80v-80z" stroke="#fff" stroke-opacity="0" fill="#693cc5"/><path d="M279.1 633.8c1.43.5 2.7.74 4.2.8.94.06 1.78-.17 2.56-.73.62-.58.92-1.3.88-2.13.08-.87-.2-1.65-.83-2.27-.83-.57-1.7-.78-2.7-.7-1.22 0-2.24.07-3.43.2v-1.5l.42-6.6h8.02v1.8H282l-.3 4.46c.75-.14 1.4-.2 2.15-.2 1.4-.1 2.64.32 3.7 1.24.97.94 1.43 2.12 1.35 3.46.05 1.38-.48 2.6-1.55 3.5-1.22.95-2.57 1.4-4.13 1.33-1.52 0-2.8-.27-4.2-.9zM296.54 627.4h.4c1.3-.1 2.48.28 3.5 1.14.9.85 1.34 1.95 1.27 3.2.05 1.36-.5 2.55-1.57 3.42-1.25.94-2.6 1.36-4.17 1.28-1.47 0-2.73-.28-4.08-.87v-1.76c1.38.5 2.62.74 4.08.8.97.06 1.8-.2 2.58-.75.64-.56.95-1.3.9-2.13 0-1.78-1.12-2.67-3.36-2.67-.75 0-1.4.03-2.14.1v-1.44l4.63-5.03h-6.46v-1.8h8.97v1.74z" stroke="#fff" stroke-opacity="0" fill="#fff"/><path d="M290 648.27c-.2 0-.38-.04-.55-.16-3.62-2.12-7.03-3.43-11.17-4.25-2.26-.4-9.6-2.14-9.6-7.47 0-2.4.95-4.02 2.14-6.04 1.83-2.72 2.77-5.48 2.9-8.76 0-3.16-.8-5.8-2.56-8.45-.26-.4-.2-.87.1-1.26l1.7-2.13c.33-.4.9-.52 1.36-.24 2.3 1.34 4.5 1.93 7.2 1.98 2.94.03 5.46-.76 7.85-2.5.38-.27.9-.27 1.23 0 2.43 1.74 4.95 2.53 7.9 2.5 2.63-.05 4.9-.68 7.2-1.98.46-.28 1.02-.16 1.36.24l1.7 2.13c.3.36.35.87.1 1.26-1.76 2.6-2.53 5.3-2.57 8.45 0 3.8 1.53 6.4 2.9 8.76 1.2 2.02 2.12 3.64 2.12 6.04 0 5.33-7.33 7.07-9.6 7.47-4.13.82-7.54 2.1-11.16 4.26-.17.13-.34.17-.56.17zm-16.62-35.73c1.66 2.84 2.43 5.65 2.43 8.92 0 4.38-1.74 7.42-3.2 9.83-1.06 1.9-1.78 3.15-1.78 4.97 0 3.8 6.52 5.17 7.8 5.4 4.22.83 7.63 2.14 11.34 4.27 3.7-2.13 7.17-3.44 11.34-4.27 1.32-.23 7.85-1.6 7.85-5.4 0-1.82-.73-3.08-1.83-4.98-1.4-2.42-3.2-5.46-3.2-9.84.04-3.27.8-6.08 2.5-8.92l-.67-.83c-2.4 1.23-4.73 1.83-7.46 1.83-3.17.04-5.85-.7-8.54-2.45-2.64 1.74-5.37 2.5-8.52 2.45-2.73 0-5.04-.6-7.46-1.82z" stroke="#fff" stroke-opacity="0" fill="#fff"/><path d="M290.02 654.67c-.26 0-.48-.06-.7-.22-3.77-2.72-7.45-4.37-11.98-5.33-8.8-1.6-14.02-6.45-14.02-12.84.1-3.25.96-6.02 2.83-8.74 1.17-1.97 2.13-3.68 2.13-6.03-.1-3.24-1.44-5.96-3.9-8.14-.47-.32-.58-1-.2-1.5.05 0 .05-.05.05-.05 0-.1 6.3-7.6 7.73-9.53.16-.32.48-.48.8-.48.37 0 .63.1.9.37 2.03 2.4 4.64 3.73 7.83 3.9 2.98 0 5.32-1.35 7.56-4.28.43-.5 1.17-.6 1.65-.17l.17.16c2.24 2.98 4.6 4.26 7.57 4.26 3.2-.16 5.8-1.5 7.83-3.9.27-.26.54-.37.9-.37.33 0 .65.15.8.47 1.45 1.92 7.68 9.44 7.74 9.54.17.23.27.5.22.8 0 .33-.16.55-.37.76-2.45 2.18-3.8 4.9-3.9 8.15 0 2.36 1.02 4.07 2.14 6.04 1.85 2.72 2.7 5.5 2.8 8.74 0 6.4-5.2 11.24-14 12.84-4.53.96-8.2 2.56-12 5.33-.15.1-.37.22-.58.22zm-23.4-42.27c2.56 2.56 3.84 5.54 3.9 9.1 0 2.95-1.23 5.08-2.45 7.16-1.28 2.3-2.5 4.37-2.5 7.67 0 7.78 9.32 10.07 12.14 10.6 4.65.97 8.43 2.57 12.32 5.23 3.84-2.66 7.62-4.26 12.26-5.22 2.82-.54 12.15-2.83 12.15-10.6 0-3.3-1.23-5.34-2.5-7.68-1.23-2.14-2.46-4.27-2.46-7.15.06-3.56 1.33-6.54 3.9-9.1-1.45-1.7-4.64-5.6-6.35-7.78-2.4 2.34-5.22 3.57-8.52 3.67-3.47 0-6.4-1.44-8.53-4.1-2.2 2.66-5.12 4.1-8.58 4.1-3.32-.1-6.14-1.34-8.54-3.68-1.54 2.18-4.8 6.07-6.23 7.78z" stroke="#fff" stroke-opacity="0" fill="#fff"/><use xlink:href="#p" transform="matrix(1,0,0,1,220,677) translate(46.60493827160494 17.77777777777778)"/><path d="M616.02 540h-9.76l-.82.07-.76.18-.73.3-.67.4-.6.52-.5.6-.4.66-.3.73-.2.76-.06.82v78l-.08 1.06-.26 1.06-.42 1.02-.57.94-.73.83-.83.72-.94.57-1 .42-1.08.26-1.06.08H461v-2h133.18l.82-.07.76-.18.73-.3.66-.4.6-.52.5-.6.4-.66.3-.73.2-.76.06-.82v-78l.08-1.06.26-1.06.42-1.02.58-.94.7-.83.85-.72.94-.57 1.02-.42 1.07-.26 1.05-.08h9.85zm45.26 0h-8.8v-2h8.8z" stroke="#3a414a" stroke-width=".05" fill="#3a414a"/><path d="M461.03 630h-1.1l.07-1-.04-1h1.07z" fill="#3a414a"/><path d="M461.05 630.02h-1.14L460 629l-.04-1.02h1.1zm-1.06-2l.02.98-.06.98H461V628z" stroke="#3a414a" stroke-width=".05" fill="#3a414a"/><path d="M676.54 539l-14.26 4.63v-9.26z" fill="#3a414a"/><path d="M679.78 539l-18.5 6v-12zm-16.5 3.26L673.3 539l-10.02-3.26z" stroke="#3a414a" stroke-width=".05" fill="#3a414a"/><use xlink:href="#q" transform="matrix(1,0,0,1,616.0248259122753,528.3333333333334) translate(0 14.222222222222223)"/><path d="M595.32 628.08l1.06.26 1.02.42.94.57.83.72.72.83.56.94.42 1.02.26 1.06.08 1.06v78l.07.82.17.76.3.73.4.67.52.6.58.5.67.4.73.3.76.2.82.06H621v2h-14.82l-1.05-.08-1.07-.26-1.02-.42-.93-.57-.83-.72-.7-.83-.6-.94-.4-1.02-.27-1.06-.08-1.06v-78l-.06-.82-.2-.76-.3-.73-.4-.67-.5-.6-.6-.5-.67-.4-.74-.3-.76-.2-.82-.06H461v-2h133.26zM671.28 718v2h-19.7v-2z" stroke="#3a414a" stroke-width=".05" fill="#3a414a"/><path d="M461.03 630h-1.1l.07-1-.04-1h1.07z" fill="#3a414a"/><path d="M461.05 630.02h-1.14L460 629l-.04-1.02h1.1zm-1.06-2l.02.98-.06.98H461V628z" stroke="#3a414a" stroke-width=".05" fill="#3a414a"/><path d="M686.54 719l-14.26 4.63v-9.26z" fill="#3a414a"/><path d="M689.78 719l-18.5 6v-12zm-16.5 3.26L683.3 719l-10.02-3.26z" stroke="#3a414a" stroke-width=".05" fill="#3a414a"/><use xlink:href="#r" transform="matrix(1,0,0,1,620.9985501748981,708.3333333333334) translate(0 14.222222222222223)"/><path d="M700 1060h100v100H700v-100z" stroke="#fff" stroke-opacity="0" stroke-width="2" fill="#3b48cc"/><path d="M764.6 1097.64c0-3.85-7.58-5.65-14.66-5.65-7.1 0-14.67 1.8-14.67 5.64 0 .2.02.36.05.57v24.06c-.05 4.04 7.56 5.73 14.68 5.73 7.14 0 14.67-1.78 14.67-5.63v-24.73zm-14.63-3c7.76 0 12 2.13 12 3 0 .86-4.2 3-12 3-7.83 0-12-2.1-12-3 0-.87 4.2-3 12-3zm12 27.73c0 .87-4.2 2.95-12 2.95s-12-2.1-12-2.95v-4.2c2.8 1.54 7.53 2.26 12 2.26 4.46 0 9.14-.72 12-2.24zm0-7.6c0 .87-4.2 3-12 3-7.83 0-12-2.13-12-3h.03v-5.07c2.82 1.5 7.53 2.23 12 2.23 4.46 0 9.14-.72 12-2.2zm0-8.5c0 .87-4.2 3.03-12 3.03-7.83 0-12-2.16-12-3.02h.03v-5.18c2.85 1.5 7.5 2.2 12 2.2s9.23-.73 12-2.28zM721.22 1140.68H730v2.67h-12c-.74 0-1.33-.6-1.33-1.34v-12h2.66v8.78l10-10 1.87 1.88zM783.33 1130v12c0 .76-.6 1.35-1.34 1.35h-12v-2.67h8.78l-9.85-9.87 1.9-1.87 9.84 9.85V1130zM783.33 1078.02v12h-2.66v-8.8l-9.85 9.85-1.9-1.9 9.85-9.83H770v-2.66h12c.74 0 1.33.6 1.33 1.34zM731.2 1089.34l-1.86 1.86-10-10v8.8h-2.67v-12c0-.75.6-1.35 1.33-1.35h12v2.66l-8.78.02zM729.55 1121.95c-8.15-2.93-12.82-7.42-12.82-12.28 0-4.87 4.67-9.34 12.82-12.28l.9 2.5c-6.9 2.5-11.06 6.13-11.06 9.77 0 3.63 4.14 7.27 11.05 9.77zM769.7 1122.24l-.85-2.54c7.4-2.5 11.82-6.24 11.82-10.03 0-3.8-4.42-7.55-11.82-10.06l.86-2.5c8.67 2.9 13.63 7.5 13.63 12.57 0 5.05-4.96 9.63-13.62 12.57z" stroke="#fff" stroke-opacity="0" stroke-width="2" fill="#fff"/><use xlink:href="#s" transform="matrix(1,0,0,1,670,1169) translate(12.808641975308646 17.77777777777778)"/><use xlink:href="#t" transform="matrix(1,0,0,1,670,1169) translate(100.40123456790124 17.77777777777778)"/><path d="M1260 659h120v120h-120V659z" stroke="#fff" stroke-opacity="0" stroke-width="2" fill="#3b48cc"/><path d="M1340.4 723.78l-10.6 10.55c2-.56 3.65-1.2 5.5-2.24 1.1.63 1.68 1.67 1.9 2.87 0 2.96-6.2 6.16-15.4 7.43-3.05.4-5.55.57-8.6.57h-1.58c-12.95-.25-22.42-4.32-22.42-8 .17-1.2.82-2.16 1.9-2.88 5.02 2.8 13.18 4.47 22.1 4.47h.17l.92-3.2h-1.1c-8.8 0-16.98-1.76-21.28-4.47-1.74-1.12-2.72-2.4-2.72-3.44v-7.44c4.9 3.76 14.64 5.68 24 5.68 1.25 0 2.5 0 3.76-.08l.92-3.2c-1.63.08-3.1.16-4.68.16-13.7 0-24-4.23-24-8 .17-1.27.82-2.23 1.9-2.87 4.42 2.5 11.22 4 18.9 4.4l.1-3.2c-7.56-.4-14.42-2-18.18-4.47-1.74-1.03-2.66-2.3-2.72-3.43v-7.36c4.9 3.76 14.64 5.68 24 5.68h.33l1.74-3.2h-2.07c-13.7 0-24-4.16-24-8 0-3.75 10.3-8 24-8 4.85 0 8.98.5 13.72 1.6h8.8c-4.83-2.95-13.1-4.78-22.52-4.78-13.17 0-27.2 3.9-27.2 11.2V703c.1 1.9.92 3.5 2.44 4.7-1.52 1.3-2.34 2.9-2.45 4.8v12.8c.1 2 .92 3.6 2.44 4.88-1.52 1.2-2.34 2.8-2.45 4.8v13.1c.43 7.03 14.2 10.8 27.2 10.8s26.78-3.76 27.2-10.88V734.88c-.04-1.9-.9-3.6-2.44-4.78 1.53-1.2 2.34-2.88 2.45-4.8zm-3.2 23.98c0 3.76-10.28 8-24 8-13.7 0-24-4.16-24-8v-7.35c4.9 3.68 14.64 5.68 24 5.68s19.1-2 24-5.67z" stroke="#fff" stroke-opacity="0" stroke-width="2" fill="#fff"/><path d="M1296 703.03c0 1.1-.9 2-2 2s-2-.9-2-2 .9-2 2-2 2 .9 2 2zM1296 725.43c0 1.1-.9 2-2 2s-2-.9-2-2 .9-2 2-2 2 .9 2 2zM1296 747.83c0 1.1-.9 2-2 2s-2-.9-2-2 .9-2 2-2 2 .9 2 2zM1317.2 741.37c-.3 0-.53-.06-.82-.22-.64-.38-.92-1.14-.72-1.85l8.98-29.95h-9.06c-.88.06-1.6-.65-1.6-1.58 0-.27.04-.54.2-.76l9.58-19.2c.28-.55.8-.88 1.45-.88h20.82c.88-.06 1.6.65 1.64 1.52.04.22 0 .38-.04.6l-4.13 12.25h8.97c.88.05 1.6.75 1.6 1.63 0 .43-.16.76-.44 1.1l-35.2 36.8c-.32.38-.72.54-1.24.54zm1-35.18h8.6c.53 0 .97.2 1.3.6.27.43.4.92.23 1.4l-7.7 25.6 28.03-29.24h-7.46c-.88 0-1.64-.65-1.68-1.52 0-.22 0-.44.08-.6l4.1-12.3h-17.6z" stroke="#fff" stroke-opacity="0" stroke-width="2" fill="#fff"/><use xlink:href="#u" transform="matrix(1,0,0,1,1230,788) translate(49.29012345679012 17.77777777777778)"/><use xlink:href="#v" transform="matrix(1,0,0,1,1230,788) translate(33.30246913580247 44.44444444444444)"/><path d="M1260 469h120v120h-120V469z" stroke="#000" stroke-opacity="0" fill="url(#w)"/><path d="M1314.35 540.2c-.9 2.76-3.47 4.87-6.62 4.87-3.8 0-6.85-3-6.85-6.75s3.06-6.83 6.85-6.83c.4 0 .73.07 1.05.07l7.26-11.63c-1.2-1.28-1.93-2.93-1.93-4.8 0-3.75 3.07-6.75 6.86-6.75 3.8 0 6.85 3 6.85 6.74 0 1.95-.8 3.68-2.08 4.88l5.72 11.55c.24 0 .57-.08.9-.08 3.78 0 6.85 3.07 6.85 6.82-.02 3.75-3.08 6.75-6.87 6.75-3.14 0-5.72-2.1-6.53-4.88zm45.72-28.2l-6.37-2.1c7.58 14.17 6.13 32.17-4.27 43.8-7.34 8.3-18.15 12.74-29.03 12.74-5.9 0-11.86-1.35-17.34-4.05l1.77-3.3c13.95 6.97 31.53 3.66 41.77-7.88 9.44-10.5 10.57-27.53 3.23-40.36l-2.5 7.43-3.55-1.2 3.8-11.2c.3-.96 1.36-1.48 2.33-1.2l11.38 3.76zm-68.54 32.32l1.05-6.38 3.8.67-1.95 11.2c-.08.52-.4 1.04-.9 1.34-.23.15-.63.23-.95.23-.17 0-.4 0-.57-.08l-11.36-3.76 1.2-3.52 6.38 2.1c-7.5-13.8-5.97-30.38 4.36-42 11.37-12.75 30.88-16.36 46.28-8.63l-1.77 3.3c-13.88-7-31.38-3.7-41.7 7.8-9.2 10.4-10.57 25.34-3.87 37.72zm27.82-22.58l-7.1 11.48c.97.82 1.7 1.94 2.1 3.22h11.45c.32-1.35 1.13-2.48 2.18-3.38l-5.57-11.24c-.47.07-.96.14-1.44.14-.56 0-1.05-.07-1.6-.22zm16.05 16.58c0-1.73-1.38-3.08-3.07-3.08-1.7 0-3.06 1.35-3.06 3.08 0 1.64 1.37 3 3.06 3 1.7 0 3.07-1.36 3.07-3zm-30.73 0c0 1.64 1.37 3 3.06 3 1.7 0 3.07-1.36 3.07-3 0-1.73-1.37-3.08-3.07-3.08-1.7 0-3.06 1.35-3.06 3.08zm16.3-26.18c-1.7 0-3.07 1.35-3.07 3 0 1.73 1.37 3.08 3.06 3.08 1.7 0 3.06-1.36 3.06-3.08 0-1.65-1.37-3-3.06-3z" stroke="#000" stroke-opacity="0" fill="#fff"/><path d="M260 758h60v62h-60v-62z" stroke="#000" stroke-opacity="0" fill="url(#x)"/><path d="M305.36 789.98v-9.74h-1.9v6.8h-1.57l-1.58.96c-.78-1.32-2.06-2.35-3.5-2.8-1.3.6-2.82.57-4.1 0-2.47.77-4.2 3.07-4.37 5.73H294v1.95h-7.6c-.5 0-.94-.43-.94-1v-11.63h-14.2v13.9c0 .88.58 1.63 1.28 1.63h18.62v1.95h-18.62c-1.78 0-3.18-1.63-3.18-3.58v-20.98c0-1.95 1.4-3.58 3.18-3.58h31.58c1.73 0 3.13 1.62 3.13 3.57v16.8zm.12 18.48c-1.2.56-2.52.88-3.84.88-.37 0-.74-.04-1.07-.08-1.65-.2-3.22-.88-4.5-1.9-2.48-2.04-3.76-5.18-3.4-8.4.38-3.06 2.2-5.72 4.84-7.1 1.62-.85 3.44-1.2 5.2-.96 3 .35 5.6 2.22 6.95 4.96.83 1.67 1.16 3.5.9 5.33-.2 1.82-.9 3.53-2.06 4.92-.83.95-1.86 1.78-3.02 2.34zm-2.97-15.66c-.28 0-.57-.04-.86-.04-1.15 0-2.23.28-3.26.8-2.1 1.1-3.5 3.22-3.8 5.64-.3 2.54.7 5 2.64 6.64 1.04.83 2.27 1.35 3.55 1.5 1.33.17 2.7-.07 3.88-.63.9-.42 1.74-1.1 2.4-1.86.9-1.1 1.5-2.42 1.65-3.9.17-1.42-.08-2.9-.74-4.2-1.08-2.15-3.14-3.62-5.45-3.94zm2.86-14.46v-5.17c0-.87-.58-1.63-1.24-1.63h-31.58c-.7 0-1.28.76-1.28 1.63v5.17h14.2v-3.9c0-.5.45-.95.95-.95h16.15c.5 0 .9.43.9.94v3.9zm-3.76-2.94h-14.24v12c.9-1.7 2.4-3.1 4.25-3.86-.57-.75-.86-1.67-.86-2.62 0-2.42 1.9-4.37 4.25-4.37s4.25 1.95 4.25 4.37c0 1.03-.38 2-1 2.78 1.33.6 2.48 1.55 3.35 2.75zm-1 28.13c-.16.16-.4.28-.65.28s-.5-.1-.7-.27l-2.64-2.74 1.37-1.36 1.98 2.03 4.58-4.73 1.36 1.4zm-3.25-22.6c0-1.36-1.03-2.43-2.36-2.43-1.33 0-2.4 1.07-2.4 2.42 0 .84.5 1.67 1.24 2.07.7.38 1.57.38 2.3 0 .75-.4 1.2-1.25 1.2-2.08zm-24.2 4.2v-1.94h8.5v1.93zm0 4.85v-1.95h5.7v1.95zm6.65 0v-1.95h2.8v1.95z" stroke="#000" stroke-opacity="0" fill="#fff"/><use xlink:href="#y" transform="matrix(1,0,0,1,230,829) translate(17.11172839506174 13.211111111111112)"/><path d="M1599.4 893.8l5.96.8 4.65.9 15.52 5.7 13.3 8.8 3.24 3 9.18 12.1 5.04 13.7.38 1.8.26 14.4-4.13 14-2.6 4.7-3.75 5.5-4.52 5.1-5.17 4.6-5.94 4.1-.65.3-.77.2h-.78l-.77-.1-.65-.3-.65-.4-.5-.5-.4-.6-7.76-18.5-.78-2.3-.65-5 .78-5 .26-.7 2.85-5.4 4.52-4.5 4.8-3.4 2.18-2.2 1.68-2.5.9-2.7.26-2.9-.78-2.3-1.42-2-2.2-1.6-2.58-1-18.87-4.4-3.1-1-2.72-1.6-2.2-2.1-1.4-2.5-2.2-5-.27-.5-.4-.4-.5-.2-.65-.1-.64.1-.5.2-.53.4-.26.5-20.16 64.8-4.5 13.7-.27.7-.65.5-.64.5-.78.2-.9.1-.78-.1-.9-.3-.65-.5-1.42-1.4-3.6-4.6-2.6-5-1.67-5.2-.65-5.5v-8l-.4-3.2-1.15-3.1-1.8-2.8-2.6-2.5-2.97-1.9-3.5-1.3-3.73-.7-3.88-.1-1.04.1-1.15-.2-1.03-.4-.9-.6-.65-.8-.52-.8-.26-1v-.9l.25-1.7 1.16-5.2 1.82-5.1 2.2-4.9 2.97-4.8 1.54-2.2 4.78-5.4 5.43-5 6.2-4.3.78-.5 5.43-2.9 5.8-2.5 6.1-2 6.32-1.4 3.23-.6 5.95-.6 5.95-.1z" stroke="#000" stroke-opacity="0" fill="#25392b"/><path d="M1612.08 931.7l1.68 3.6-1.68 3.5-4.13 1.4-4.14-1.4-1.8-3.5 1.8-3.6 4.14-1.4z" stroke="#000" stroke-opacity="0" fill="#25392b"/><path d="M1463.08 979.5a6 6 0 0 1 6-6H1694a6 6 0 0 1 6 6v48a6 6 0 0 1-6 6h-224.92a6 6 0 0 1-6-6z" stroke="#000" stroke-opacity="0" fill="#fff" fill-opacity="0"/><use xlink:href="#z" transform="matrix(1,0,0,1,1468.0769230769229,978.4990644204674) translate(17.358024691358025 30.27777777777778)"/><use xlink:href="#A" transform="matrix(1,0,0,1,1468.0769230769229,978.4990644204674) translate(128.28395061728395 30.27777777777778)"/><path d="M156.4 598c1.98 0 3.6 1.57 3.6 3.42v33.1c0 1.9-1.62 3.4-3.6 3.4h-52.8c-1.98 0-3.6-1.5-3.6-3.4v-33.1c0-1.85 1.62-3.42 3.6-3.42zm.84 36.5v-33.08c0-.45-.36-.84-.84-.84h-52.8c-.48 0-.84.4-.84.84v33.1c0 .44.36.83.84.83h52.8c.48 0 .84-.4.84-.84zm-4.02-31.96c1.08 0 1.92.84 1.92 1.84v27.16c0 1-.84 1.85-1.92 1.85h-46.5c-1.02 0-1.92-.85-1.92-1.86v-27.16c0-1 .9-1.84 1.92-1.84zm-45.66 28.28h44.88v-25.65h-44.88zm48.84 9.3c1.98 0 3.6 1.56 3.6 3.4v7.06c0 1.85-1.62 3.42-3.6 3.42h-52.8c-1.98 0-3.6-1.57-3.6-3.42v-7.05c0-1.85 1.62-3.42 3.6-3.42zm.84 10.46v-7.05c0-.45-.36-.84-.84-.84h-52.8c-.48 0-.84.38-.84.83v7.05c0 .45.36.84.84.84h52.8c.48 0 .84-.4.84-.84zm-2.04-4.76v2.52c0 .56-.48 1-1.08 1h-14.7c-.6 0-1.08-.44-1.08-1v-2.52c0-.56.48-1 1.08-1h14.7c.6 0 1.08.44 1.08 1z" stroke="#000" stroke-opacity="0" fill="#232f3d"/><path d="M100 634.87v15.67l3.6 2.54 53.9-.44 2.5-2v-49.23l-2.33-1.98-14.88-.16-39.85-.06-2.88 2.27z" stroke="#000" stroke-opacity="0" fill-opacity="0"/><path d="M161 626h70.5" stroke="#3a414a" stroke-width="2" fill="none"/><path d="M161.04 627H160v-2h1.04z" stroke="#3a414a" stroke-width=".05" fill="#3a414a"/><path d="M246.76 626l-14.26 4.63v-9.26z" stroke="#3a414a" stroke-width="2" fill="#3a414a"/><path d="M331 628h30.56" stroke="#3a414a" stroke-width="2" fill="none"/><path d="M331.03 629H330v-2h1.03z" stroke="#3a414a" stroke-width=".05" fill="#3a414a"/><path d="M376.83 628l-14.27 4.63v-9.26z" stroke="#3a414a" stroke-width="2" fill="#3a414a"/><path d="M751 1041.5h-2V919.67h2zm-.2-143.17h-2l-.02-121.83h2z" stroke="#3a414a" stroke-width=".05" fill="#3a414a"/><path d="M750 1056.76l-4.63-14.26h9.26z" fill="#3a414a"/><path d="M750 1060l-6-18.5h12zm-3.26-16.5l3.26 10.03 3.26-10.03z" stroke="#3a414a" stroke-width=".05" fill="#3a414a"/><path d="M754.4 775.5h-9.26l4.64-14.26z" fill="#3a414a"/><path d="M755.8 776.5h-12.03l6-18.5zm-9.28-2h6.52l-3.26-10.03z" stroke="#3a414a" stroke-width=".05" fill="#3a414a"/><use xlink:href="#B" transform="matrix(1,0,0,1,681.2721243216063,898.3333333333334) translate(0 14.222222222222223)"/><use xlink:href="#C" transform="matrix(1,0,0,1,681.2721243216063,898.3333333333334) translate(71.11111111111111 14.222222222222223)"/><path d="M1320 609.62v28.76" stroke="#e81313" stroke-width="3" fill="none"/><path d="M1320 593.85l4.63 14.27h-9.27zM1320 654.15l-4.63-14.27h9.27z" stroke="#e81313" stroke-width="3" fill="#e81313"/><path d="M1252.7 437.4H1380V469h-127.3z" fill="#fff" fill-opacity="0"/><use xlink:href="#D" transform="matrix(1,0,0,1,1257.7,442.40000000000003) translate(0 14.4)"/><use xlink:href="#E" transform="matrix(1,0,0,1,1257.7,442.40000000000003) translate(45.3 14.4)"/><path d="M1415.1 529.08l1.06.26 1.02.42.94.57.83.72.72.83.57.94.42 1.02.26 1.06.08 1.06v568.08l-.08 1.06-.26 1.06-.42 1.02-.57.94-.72.83-.83.72-.94.57-1.02.42-1.06.26-1.06.08H818.5v-2h595.46l.82-.07.76-.18.73-.3.67-.4.6-.52.5-.6.4-.66.3-.73.2-.76.06-.82V536.04l-.07-.82-.18-.76-.3-.73-.4-.67-.52-.6-.6-.5-.66-.4-.73-.3-.76-.2-.82-.06h-15.46v-2h15.54z" stroke="#e81313" stroke-width=".05" fill="#e81313"/><path d="M817.5 1114.63l-14.26-4.63 14.26-4.63z" fill="#e81313"/><path d="M818.5 1116l-18.5-6 18.5-6zm-12.03-6l10.03 3.26v-6.52z" stroke="#e81313" stroke-width=".05" fill="#e81313"/><path d="M1397.5 534.63l-14.26-4.63 14.26-4.63z" fill="#e81313"/><path d="M1398.5 536l-18.5-6 18.5-6zm-12.03-6l10.03 3.26v-6.52z" stroke="#e81313" stroke-width=".05" fill="#e81313"/><path d="M1200 719h41.5" stroke="#3a414a" stroke-width="2" fill="none"/><path d="M1184.74 719l14.26-4.63v9.26zM1256.76 719l-14.26 4.63v-9.26z" stroke="#3a414a" stroke-width="2" fill="#3a414a"/><path d="M1140 782.62v6.45m0 12.9v12.92m0 12.9v12.9m0 12.9v12.9m0 12.92v12.9m0 12.9v12.92m0 12.9v6.46l.07.94.22.9.35.88.5.8.6.72.72.6.8.5.88.37.9.22.95.08h6.02m12.03 0h12.04m12.03 0h12.03m12.04 0h12.03m12.04 0h12.03m12.04 0h12.04m12.03 0h12.05m12.03 0h12.04m12.03 0h12.04m12.03 0h12.03m12.04 0h12.03m12.04 0h12.03m12.04 0h12.04m12.03 0h12.05m12.03 0h12.04m12.03 0h6.02" stroke="#248814" stroke-width="3" fill="none"/><path d="M1140 766.85l4.63 14.27h-9.27zM1522.84 943.5l-14.27 4.63v-9.27z" stroke="#248814" stroke-width="3" fill="#248814"/><path d="M877.8 540h-59.52v-2h59.52zm363.7 0h-171.3v-2h171.3z" stroke="#3a414a" stroke-width=".05" fill="#3a414a"/><path d="M817.28 543.63L803.02 539l14.26-4.63z" fill="#3a414a"/><path d="M818.28 545l-18.5-6 18.5-6zm-12.03-6l10.03 3.26v-6.52z" stroke="#3a414a" stroke-width=".05" fill="#3a414a"/><path d="M1256.76 539l-14.26 4.63v-9.26z" fill="#3a414a"/><path d="M1260 539l-18.5 6v-12zm-16.5 3.26l10.03-3.26-10.03-3.26z" stroke="#3a414a" stroke-width=".05" fill="#3a414a"/><use xlink:href="#B" transform="matrix(1,0,0,1,877.8024691358024,528.3333333333334) translate(0 14.222222222222223)"/><use xlink:href="#F" transform="matrix(1,0,0,1,877.8024691358024,528.3333333333334) translate(71.11111111111111 14.222222222222223)"/><use xlink:href="#G" transform="matrix(1,0,0,1,877.8024691358024,528.3333333333334) translate(93.77777777777779 14.222222222222223)"/><use xlink:href="#H" transform="matrix(1,0,0,1,877.8024691358024,528.3333333333334) translate(126.27160493827162 14.222222222222223)"/><path d="M845.2 720H828.3v-2h16.93zm234.86-1h-16.93v-2h16.93z" stroke="#3a414a" stroke-width=".05" fill="#3a414a"/><path d="M827.28 723.63L813.02 719l14.26-4.63z" fill="#3a414a"/><path d="M828.28 725l-18.5-6 18.5-6zm-12.03-6l10.03 3.26v-6.52z" stroke="#3a414a" stroke-width=".05" fill="#3a414a"/><path d="M1095.32 718l-14.26 4.63v-9.26z" fill="#3a414a"/><path d="M1098.56 718l-18.5 6v-12zm-16.5 3.26l10.03-3.26-10.04-3.26z" stroke="#3a414a" stroke-width=".05" fill="#3a414a"/><g><use xlink:href="#I" transform="matrix(1,0,0,1,845.2061739146354,707.8333333333334) translate(0 14.222222222222223)"/><use xlink:href="#J" transform="matrix(1,0,0,1,845.2061739146354,707.8333333333334) translate(55.20987654320989 14.222222222222223)"/><use xlink:href="#H" transform="matrix(1,0,0,1,845.2061739146354,707.8333333333334) translate(151.80246913580248 14.222222222222223)"/></g><path d="M130 655v123a6 6 0 0 0 6 6h105.5" stroke="#3a414a" stroke-width="2" fill="none"/><path d="M131 655.03h-2V654h2z" stroke="#3a414a" stroke-width=".05" fill="#3a414a"/><path d="M256.76 784l-14.26 4.63v-9.26z" stroke="#3a414a" stroke-width="2" fill="#3a414a"/><path d="M718.33 783.04l-.08 1.06-.26 1.06-.43 1.02-.57.94-.72.83-.83.72-.94.57-1 .42-1.07.26-1.06.08H321v-2h390.3l.82-.07.76-.18.72-.3.67-.4.6-.52.5-.6.42-.66.3-.73.17-.76.06-.82v-6.46h2z" stroke="#3a414a" stroke-width=".05" fill="#3a414a"/><path d="M321.03 790H320v-2h1.03z" fill="#3a414a"/><path d="M321.05 790.02h-1.07V788h1.07zm-1.03-2V790h.98V788z" stroke="#3a414a" stroke-width=".05" fill="#3a414a"/><path d="M721.97 775.5h-9.27l4.63-14.26z" fill="#3a414a"/><path d="M723.35 776.5h-12.03l6-18.5zm-9.28-2h6.52l-3.27-10.03z" stroke="#3a414a" stroke-width=".05" fill="#3a414a"/><path d="M1100 709.2a14.48 14.48 0 0 1 4.24-10.24l14.72-14.72a14.48 14.48 0 0 1 10.24-4.24h21.6a14.48 14.48 0 0 1 10.24 4.24l14.72 14.72a14.48 14.48 0 0 1 4.24 10.24v21.6a14.48 14.48 0 0 1-4.24 10.24l-14.72 14.72a14.48 14.48 0 0 1-10.24 4.24h-21.6a14.48 14.48 0 0 1-10.24-4.24l-14.72-14.72a14.48 14.48 0 0 1-4.24-10.24z" stroke="#3a414a" stroke-width="4" fill="#e3fae3"/><path d="M1472.3 766a6 6 0 0 1 6-6h228a6 6 0 0 1 6 6v428a6 6 0 0 1-6 6h-228a6 6 0 0 1-6-6z" stroke="#232f3d" stroke-width="3" fill-opacity="0"/><g><use xlink:href="#K" transform="matrix(1,0,0,1,1484.3076923076924,772) translate(0 17.77777777777778)"/><use xlink:href="#L" transform="matrix(1,0,0,1,1484.3076923076924,772) translate(61.54320987654321 17.77777777777778)"/><use xlink:href="#M" transform="matrix(1,0,0,1,1484.3076923076924,772) translate(123.20987654320987 17.77777777777778)"/></g><path d="M90 573a6 6 0 0 1 6-6h68a6 6 0 0 1 6 6v10a6 6 0 0 1-6 6H96a6 6 0 0 1-6-6z" stroke="#000" stroke-opacity="0" fill="#fff" fill-opacity="0"/><g><use xlink:href="#N" transform="matrix(1,0,0,1,95,572) translate(6.697530864197532 17.77777777777778)"/></g><defs><path fill="#232f3e" d="M205 0l-28-72H64L36 0H1l101-248h38L239 0h-34zm-38-99l-47-123c-12 45-31 82-46 123h93" id="O"/><path fill="#232f3e" d="M266 0h-40l-56-210L115 0H75L2-248h35L96-30l15-64 43-154h32l59 218 59-218h35" id="P"/><path fill="#232f3e" d="M185-189c-5-48-123-54-124 2 14 75 158 14 163 119 3 78-121 87-175 55-17-10-28-26-33-46l33-7c5 56 141 63 141-1 0-78-155-14-162-118-5-82 145-84 179-34 5 7 8 16 11 25" id="Q"/><g id="a"><use transform="matrix(0.05,0,0,0.05,0,0)" xlink:href="#O"/><use transform="matrix(0.05,0,0,0.05,11.35,0)" xlink:href="#P"/><use transform="matrix(0.05,0,0,0.05,28.299999999999997,0)" xlink:href="#Q"/></g><path fill="#232f3e" d="M212-179c-10-28-35-45-73-45-59 0-87 40-87 99 0 60 29 101 89 101 43 0 62-24 78-52l27 14C228-24 195 4 139 4 59 4 22-46 18-125c-6-104 99-153 187-111 19 9 31 26 39 46" id="R"/><path fill="#232f3e" d="M24 0v-261h32V0H24" id="S"/><path fill="#232f3e" d="M100-194c62-1 85 37 85 99 1 63-27 99-86 99S16-35 15-95c0-66 28-99 85-99zM99-20c44 1 53-31 53-75 0-43-8-75-51-75s-53 32-53 75 10 74 51 75" id="T"/><path fill="#232f3e" d="M84 4C-5 8 30-112 23-190h32v120c0 31 7 50 39 49 72-2 45-101 50-169h31l1 190h-30c-1-10 1-25-2-33-11 22-28 36-60 37" id="U"/><path fill="#232f3e" d="M85-194c31 0 48 13 60 33l-1-100h32l1 261h-30c-2-10 0-23-3-31C134-8 116 4 85 4 32 4 16-35 15-94c0-66 23-100 70-100zm9 24c-40 0-46 34-46 75 0 40 6 74 45 74 42 0 51-32 51-76 0-42-9-74-50-73" id="V"/><g id="b"><use transform="matrix(0.05,0,0,0.05,0,0)" xlink:href="#R"/><use transform="matrix(0.05,0,0,0.05,12.950000000000001,0)" xlink:href="#S"/><use transform="matrix(0.05,0,0,0.05,16.900000000000002,0)" xlink:href="#T"/><use transform="matrix(0.05,0,0,0.05,26.900000000000002,0)" xlink:href="#U"/><use transform="matrix(0.05,0,0,0.05,36.900000000000006,0)" xlink:href="#V"/></g><path fill="#248814" d="M137 0h-34L2-248h35l83 218 83-218h36" id="W"/><path fill="#248814" d="M24-231v-30h32v30H24zM24 0v-190h32V0H24" id="X"/><path fill="#248814" d="M114-163C36-179 61-72 57 0H25l-1-190h30c1 12-1 29 2 39 6-27 23-49 58-41v29" id="Y"/><path fill="#248814" d="M59-47c-2 24 18 29 38 22v24C64 9 27 4 27-40v-127H5v-23h24l9-43h21v43h35v23H59v120" id="Z"/><path fill="#248814" d="M84 4C-5 8 30-112 23-190h32v120c0 31 7 50 39 49 72-2 45-101 50-169h31l1 190h-30c-1-10 1-25-2-33-11 22-28 36-60 37" id="aa"/><path fill="#248814" d="M141-36C126-15 110 5 73 4 37 3 15-17 15-53c-1-64 63-63 125-63 3-35-9-54-41-54-24 1-41 7-42 31l-33-3c5-37 33-52 76-52 45 0 72 20 72 64v82c-1 20 7 32 28 27v20c-31 9-61-2-59-35zM48-53c0 20 12 33 32 33 41-3 63-29 60-74-43 2-92-5-92 41" id="ab"/><path fill="#248814" d="M24 0v-261h32V0H24" id="ac"/><g id="c"><use transform="matrix(0.05,0,0,0.05,0,0)" xlink:href="#W"/><use transform="matrix(0.05,0,0,0.05,11.65,0)" xlink:href="#X"/><use transform="matrix(0.05,0,0,0.05,15.600000000000001,0)" xlink:href="#Y"/><use transform="matrix(0.05,0,0,0.05,21.55,0)" xlink:href="#Z"/><use transform="matrix(0.05,0,0,0.05,26.55,0)" xlink:href="#aa"/><use transform="matrix(0.05,0,0,0.05,36.55,0)" xlink:href="#ab"/><use transform="matrix(0.05,0,0,0.05,46.55,0)" xlink:href="#ac"/></g><path fill="#248814" d="M30-248c87 1 191-15 191 75 0 78-77 80-158 76V0H30v-248zm33 125c57 0 124 11 124-50 0-59-68-47-124-48v98" id="ad"/><path fill="#248814" d="M108 0H70L1-190h34L89-25l56-165h34" id="ae"/><path fill="#248814" d="M100-194c63 0 86 42 84 106H49c0 40 14 67 53 68 26 1 43-12 49-29l28 8c-11 28-37 45-77 45C44 4 14-33 15-96c1-61 26-98 85-98zm52 81c6-60-76-77-97-28-3 7-6 17-6 28h103" id="af"/><g id="d"><use transform="matrix(0.05,0,0,0.05,0,0)" xlink:href="#ad"/><use transform="matrix(0.05,0,0,0.05,12,0)" xlink:href="#Y"/><use transform="matrix(0.05,0,0,0.05,17.95,0)" xlink:href="#X"/><use transform="matrix(0.05,0,0,0.05,21.9,0)" xlink:href="#ae"/><use transform="matrix(0.05,0,0,0.05,30.899999999999995,0)" xlink:href="#ab"/><use transform="matrix(0.05,0,0,0.05,40.9,0)" xlink:href="#Z"/><use transform="matrix(0.05,0,0,0.05,45.9,0)" xlink:href="#af"/></g><path fill="#248814" d="M212-179c-10-28-35-45-73-45-59 0-87 40-87 99 0 60 29 101 89 101 43 0 62-24 78-52l27 14C228-24 195 4 139 4 59 4 22-46 18-125c-6-104 99-153 187-111 19 9 31 26 39 46" id="ag"/><path fill="#248814" d="M100-194c62-1 85 37 85 99 1 63-27 99-86 99S16-35 15-95c0-66 28-99 85-99zM99-20c44 1 53-31 53-75 0-43-8-75-51-75s-53 32-53 75 10 74 51 75" id="ah"/><path fill="#248814" d="M85-194c31 0 48 13 60 33l-1-100h32l1 261h-30c-2-10 0-23-3-31C134-8 116 4 85 4 32 4 16-35 15-94c0-66 23-100 70-100zm9 24c-40 0-46 34-46 75 0 40 6 74 45 74 42 0 51-32 51-76 0-42-9-74-50-73" id="ai"/><g id="e"><use transform="matrix(0.05,0,0,0.05,0,0)" xlink:href="#ag"/><use transform="matrix(0.05,0,0,0.05,12.950000000000001,0)" xlink:href="#ac"/><use transform="matrix(0.05,0,0,0.05,16.900000000000002,0)" xlink:href="#ah"/><use transform="matrix(0.05,0,0,0.05,26.900000000000002,0)" xlink:href="#aa"/><use transform="matrix(0.05,0,0,0.05,36.900000000000006,0)" xlink:href="#ai"/></g><path fill="#d86613" d="M30 0v-248h187v28H63v79h144v27H63v87h162V0H30" id="aj"/><path fill="#d86613" d="M212-179c-10-28-35-45-73-45-59 0-87 40-87 99 0 60 29 101 89 101 43 0 62-24 78-52l27 14C228-24 195 4 139 4 59 4 22-46 18-125c-6-104 99-153 187-111 19 9 31 26 39 46" id="ak"/><path fill="#d86613" d="M185-189c-5-48-123-54-124 2 14 75 158 14 163 119 3 78-121 87-175 55-17-10-28-26-33-46l33-7c5 56 141 63 141-1 0-78-155-14-162-118-5-82 145-84 179-34 5 7 8 16 11 25" id="al"/><g id="f"><use transform="matrix(0.05,0,0,0.05,0,0)" xlink:href="#aj"/><use transform="matrix(0.05,0,0,0.05,12,0)" xlink:href="#ak"/><use transform="matrix(0.05,0,0,0.05,24.950000000000003,0)" xlink:href="#al"/></g><path fill="#d86613" d="M101-251c82-7 93 87 43 132L82-64C71-53 59-42 53-27h129V0H18c2-99 128-94 128-182 0-28-16-43-45-43s-46 15-49 41l-32-3c6-41 34-60 81-64" id="am"/><g id="g"><use transform="matrix(0.05,0,0,0.05,0,0)" xlink:href="#aj"/><use transform="matrix(0.05,0,0,0.05,12,0)" xlink:href="#ak"/><use transform="matrix(0.05,0,0,0.05,24.950000000000003,0)" xlink:href="#am"/></g><path fill="#d86613" d="M100-194c62-1 85 37 85 99 1 63-27 99-86 99S16-35 15-95c0-66 28-99 85-99zM99-20c44 1 53-31 53-75 0-43-8-75-51-75s-53 32-53 75 10 74 51 75" id="an"/><path fill="#d86613" d="M117-194c89-4 53 116 60 194h-32v-121c0-31-8-49-39-48C34-167 62-67 57 0H25l-1-190h30c1 10-1 24 2 32 11-22 29-35 61-36" id="ao"/><path fill="#d86613" d="M59-47c-2 24 18 29 38 22v24C64 9 27 4 27-40v-127H5v-23h24l9-43h21v43h35v23H59v120" id="ap"/><path fill="#d86613" d="M141-36C126-15 110 5 73 4 37 3 15-17 15-53c-1-64 63-63 125-63 3-35-9-54-41-54-24 1-41 7-42 31l-33-3c5-37 33-52 76-52 45 0 72 20 72 64v82c-1 20 7 32 28 27v20c-31 9-61-2-59-35zM48-53c0 20 12 33 32 33 41-3 63-29 60-74-43 2-92-5-92 41" id="aq"/><path fill="#d86613" d="M24-231v-30h32v30H24zM24 0v-190h32V0H24" id="ar"/><path fill="#d86613" d="M100-194c63 0 86 42 84 106H49c0 40 14 67 53 68 26 1 43-12 49-29l28 8c-11 28-37 45-77 45C44 4 14-33 15-96c1-61 26-98 85-98zm52 81c6-60-76-77-97-28-3 7-6 17-6 28h103" id="as"/><path fill="#d86613" d="M114-163C36-179 61-72 57 0H25l-1-190h30c1 12-1 29 2 39 6-27 23-49 58-41v29" id="at"/><g id="h"><use transform="matrix(0.05,0,0,0.05,0,0)" xlink:href="#ak"/><use transform="matrix(0.05,0,0,0.05,12.950000000000001,0)" xlink:href="#an"/><use transform="matrix(0.05,0,0,0.05,22.950000000000003,0)" xlink:href="#ao"/><use transform="matrix(0.05,0,0,0.05,32.95,0)" xlink:href="#ap"/><use transform="matrix(0.05,0,0,0.05,37.95,0)" xlink:href="#aq"/><use transform="matrix(0.05,0,0,0.05,47.95,0)" xlink:href="#ar"/><use transform="matrix(0.05,0,0,0.05,51.900000000000006,0)" xlink:href="#ao"/><use transform="matrix(0.05,0,0,0.05,61.900000000000006,0)" xlink:href="#as"/><use transform="matrix(0.05,0,0,0.05,71.9,0)" xlink:href="#at"/></g><path fill="#d86613" d="M24 0v-261h32V0H24" id="au"/><path fill="#d86613" d="M84 4C-5 8 30-112 23-190h32v120c0 31 7 50 39 49 72-2 45-101 50-169h31l1 190h-30c-1-10 1-25-2-33-11 22-28 36-60 37" id="av"/><path fill="#d86613" d="M135-143c-3-34-86-38-87 0 15 53 115 12 119 90S17 21 10-45l28-5c4 36 97 45 98 0-10-56-113-15-118-90-4-57 82-63 122-42 12 7 21 19 24 35" id="aw"/><g id="i"><use transform="matrix(0.05,0,0,0.05,0,0)" xlink:href="#ak"/><use transform="matrix(0.05,0,0,0.05,12.950000000000001,0)" xlink:href="#au"/><use transform="matrix(0.05,0,0,0.05,16.900000000000002,0)" xlink:href="#av"/><use transform="matrix(0.05,0,0,0.05,26.900000000000002,0)" xlink:href="#aw"/><use transform="matrix(0.05,0,0,0.05,35.900000000000006,0)" xlink:href="#ap"/><use transform="matrix(0.05,0,0,0.05,40.900000000000006,0)" xlink:href="#as"/><use transform="matrix(0.05,0,0,0.05,50.900000000000006,0)" xlink:href="#at"/></g><path fill="#3a414a" d="M63-220v92h138v28H63V0H30v-248h175v28H63" id="ax"/><path fill="#3a414a" d="M114-163C36-179 61-72 57 0H25l-1-190h30c1 12-1 29 2 39 6-27 23-49 58-41v29" id="ay"/><path fill="#3a414a" d="M100-194c62-1 85 37 85 99 1 63-27 99-86 99S16-35 15-95c0-66 28-99 85-99zM99-20c44 1 53-31 53-75 0-43-8-75-51-75s-53 32-53 75 10 74 51 75" id="az"/><path fill="#3a414a" d="M117-194c89-4 53 116 60 194h-32v-121c0-31-8-49-39-48C34-167 62-67 57 0H25l-1-190h30c1 10-1 24 2 32 11-22 29-35 61-36" id="aA"/><path fill="#3a414a" d="M59-47c-2 24 18 29 38 22v24C64 9 27 4 27-40v-127H5v-23h24l9-43h21v43h35v23H59v120" id="aB"/><path fill="#3a414a" d="M100-194c63 0 86 42 84 106H49c0 40 14 67 53 68 26 1 43-12 49-29l28 8c-11 28-37 45-77 45C44 4 14-33 15-96c1-61 26-98 85-98zm52 81c6-60-76-77-97-28-3 7-6 17-6 28h103" id="aC"/><path fill="#3a414a" d="M85-194c31 0 48 13 60 33l-1-100h32l1 261h-30c-2-10 0-23-3-31C134-8 116 4 85 4 32 4 16-35 15-94c0-66 23-100 70-100zm9 24c-40 0-46 34-46 75 0 40 6 74 45 74 42 0 51-32 51-76 0-42-9-74-50-73" id="aD"/><g id="j"><use transform="matrix(0.06172839506172839,0,0,0.06172839506172839,0,0)" xlink:href="#ax"/><use transform="matrix(0.06172839506172839,0,0,0.06172839506172839,13.518518518518517,0)" xlink:href="#ay"/><use transform="matrix(0.06172839506172839,0,0,0.06172839506172839,20.864197530864196,0)" xlink:href="#az"/><use transform="matrix(0.06172839506172839,0,0,0.06172839506172839,33.20987654320987,0)" xlink:href="#aA"/><use transform="matrix(0.06172839506172839,0,0,0.06172839506172839,45.55555555555555,0)" xlink:href="#aB"/><use transform="matrix(0.06172839506172839,0,0,0.06172839506172839,51.72839506172839,0)" xlink:href="#aC"/><use transform="matrix(0.06172839506172839,0,0,0.06172839506172839,64.07407407407408,0)" xlink:href="#aA"/><use transform="matrix(0.06172839506172839,0,0,0.06172839506172839,76.41975308641976,0)" xlink:href="#aD"/></g><path fill="#3a414a" d="M160-131c35 5 61 23 61 61C221 17 115-2 30 0v-248c76 3 177-17 177 60 0 33-19 50-47 57zm-97-11c50-1 110 9 110-42 0-47-63-36-110-37v79zm0 115c55-2 124 14 124-45 0-56-70-42-124-44v89" id="aE"/><path fill="#3a414a" d="M141-36C126-15 110 5 73 4 37 3 15-17 15-53c-1-64 63-63 125-63 3-35-9-54-41-54-24 1-41 7-42 31l-33-3c5-37 33-52 76-52 45 0 72 20 72 64v82c-1 20 7 32 28 27v20c-31 9-61-2-59-35zM48-53c0 20 12 33 32 33 41-3 63-29 60-74-43 2-92-5-92 41" id="aF"/><path fill="#3a414a" d="M96-169c-40 0-48 33-48 73s9 75 48 75c24 0 41-14 43-38l32 2c-6 37-31 61-74 61-59 0-76-41-82-99-10-93 101-131 147-64 4 7 5 14 7 22l-32 3c-4-21-16-35-41-35" id="aG"/><path fill="#3a414a" d="M143 0L79-87 56-68V0H24v-261h32v163l83-92h37l-77 82L181 0h-38" id="aH"/><g id="k"><use transform="matrix(0.06172839506172839,0,0,0.06172839506172839,0,0)" xlink:href="#aE"/><use transform="matrix(0.06172839506172839,0,0,0.06172839506172839,14.814814814814813,0)" xlink:href="#aF"/><use transform="matrix(0.06172839506172839,0,0,0.06172839506172839,27.160493827160494,0)" xlink:href="#aG"/><use transform="matrix(0.06172839506172839,0,0,0.06172839506172839,38.27160493827161,0)" xlink:href="#aH"/><use transform="matrix(0.06172839506172839,0,0,0.06172839506172839,49.38271604938272,0)" xlink:href="#aC"/><use transform="matrix(0.06172839506172839,0,0,0.06172839506172839,61.7283950617284,0)" xlink:href="#aA"/><use transform="matrix(0.06172839506172839,0,0,0.06172839506172839,74.07407407407408,0)" xlink:href="#aD"/></g><path fill="#333" d="M240-174c0 40-23 61-54 70L253 0h-59l-57-94H76V0H24v-248c93 4 217-23 216 74zM76-134c48-2 112 12 112-38 0-48-66-32-112-35v73" id="aI"/><path fill="#333" d="M24 0v-248h195v40H76v63h132v40H76v65h150V0H24" id="aJ"/><path fill="#333" d="M169-182c-1-43-94-46-97-3 18 66 151 10 154 114 3 95-165 93-204 36-6-8-10-19-12-30l50-8c3 46 112 56 116 5-17-69-150-10-154-114-4-87 153-88 188-35 5 8 8 18 10 28" id="aK"/><path fill="#333" d="M136-208V0H84v-208H4v-40h212v40h-80" id="aL"/><g id="l"><use transform="matrix(0.04938271604938272,0,0,0.04938271604938272,0,0)" xlink:href="#aI"/><use transform="matrix(0.04938271604938272,0,0,0.04938271604938272,12.790123456790125,0)" xlink:href="#aJ"/><use transform="matrix(0.04938271604938272,0,0,0.04938271604938272,24.641975308641978,0)" xlink:href="#aK"/><use transform="matrix(0.04938271604938272,0,0,0.04938271604938272,36.49382716049383,0)" xlink:href="#aL"/></g><path fill="#333" d="M199 0l-22-63H83L61 0H9l90-248h61L250 0h-51zm-33-102l-36-108c-10 38-24 72-36 108h72" id="aM"/><path fill="#333" d="M24-248c93 1 206-16 204 79-1 75-69 88-152 82V0H24v-248zm52 121c47 0 100 7 100-41 0-47-54-39-100-39v80" id="aN"/><path fill="#333" d="M24 0v-248h52V0H24" id="aO"/><g id="m"><use transform="matrix(0.04938271604938272,0,0,0.04938271604938272,0,0)" xlink:href="#aM"/><use transform="matrix(0.04938271604938272,0,0,0.04938271604938272,12.790123456790125,0)" xlink:href="#aN"/><use transform="matrix(0.04938271604938272,0,0,0.04938271604938272,24.641975308641978,0)" xlink:href="#aO"/></g><path fill="#3a414a" d="M30 0v-248h33v221h125V0H30" id="aP"/><g id="n"><use transform="matrix(0.06172839506172839,0,0,0.06172839506172839,0,0)" xlink:href="#aP"/><use transform="matrix(0.06172839506172839,0,0,0.06172839506172839,12.345679012345679,0)" xlink:href="#az"/><use transform="matrix(0.06172839506172839,0,0,0.06172839506172839,24.691358024691358,0)" xlink:href="#aF"/><use transform="matrix(0.06172839506172839,0,0,0.06172839506172839,37.03703703703704,0)" xlink:href="#aD"/></g><path fill="#3a414a" d="M24 0v-261h32V0H24" id="aQ"/><g id="o"><use transform="matrix(0.06172839506172839,0,0,0.06172839506172839,0,0)" xlink:href="#aE"/><use transform="matrix(0.06172839506172839,0,0,0.06172839506172839,14.814814814814813,0)" xlink:href="#aF"/><use transform="matrix(0.06172839506172839,0,0,0.06172839506172839,27.160493827160494,0)" xlink:href="#aQ"/><use transform="matrix(0.06172839506172839,0,0,0.06172839506172839,32.03703703703704,0)" xlink:href="#aF"/><use transform="matrix(0.06172839506172839,0,0,0.06172839506172839,44.382716049382715,0)" xlink:href="#aA"/><use transform="matrix(0.06172839506172839,0,0,0.06172839506172839,56.72839506172839,0)" xlink:href="#aG"/><use transform="matrix(0.06172839506172839,0,0,0.06172839506172839,67.8395061728395,0)" xlink:href="#aC"/><use transform="matrix(0.06172839506172839,0,0,0.06172839506172839,80.18518518518519,0)" xlink:href="#ay"/></g><path fill="#3a414a" d="M30-248c118-7 216 8 213 122C240-48 200 0 122 0H30v-248zM63-27c89 8 146-16 146-99s-60-101-146-95v194" id="aR"/><path fill="#3a414a" d="M190 0L58-211 59 0H30v-248h39L202-35l-2-213h31V0h-41" id="aS"/><path fill="#3a414a" d="M185-189c-5-48-123-54-124 2 14 75 158 14 163 119 3 78-121 87-175 55-17-10-28-26-33-46l33-7c5 56 141 63 141-1 0-78-155-14-162-118-5-82 145-84 179-34 5 7 8 16 11 25" id="aT"/><g id="p"><use transform="matrix(0.06172839506172839,0,0,0.06172839506172839,0,0)" xlink:href="#aR"/><use transform="matrix(0.06172839506172839,0,0,0.06172839506172839,15.987654320987653,0)" xlink:href="#aS"/><use transform="matrix(0.06172839506172839,0,0,0.06172839506172839,31.975308641975307,0)" xlink:href="#aT"/></g><path fill="#333" d="M133-34C117-15 103 5 69 4 32 3 11-16 11-54c-1-60 55-63 116-61 1-26-3-47-28-47-18 1-26 9-28 27l-52-2c7-38 36-58 82-57s74 22 75 68l1 82c-1 14 12 18 25 15v27c-30 8-71 5-69-32zm-48 3c29 0 43-24 42-57-32 0-66-3-65 30 0 17 8 27 23 27" id="aU"/><path fill="#333" d="M135-194c53 0 70 44 70 98 0 56-19 98-73 100-31 1-45-17-59-34 3 33 2 69 2 105H25l-1-265h48c2 10 0 23 3 31 11-24 29-35 60-35zM114-30c33 0 39-31 40-66 0-38-9-64-40-64-56 0-55 130 0 130" id="aV"/><path fill="#333" d="M24 0v-54h51V0H24" id="aW"/><g id="q"><use transform="matrix(0.04938271604938272,0,0,0.04938271604938272,0,0)" xlink:href="#aU"/><use transform="matrix(0.04938271604938272,0,0,0.04938271604938272,9.876543209876544,0)" xlink:href="#aV"/><use transform="matrix(0.04938271604938272,0,0,0.04938271604938272,20.69135802469136,0)" xlink:href="#aV"/><use transform="matrix(0.04938271604938272,0,0,0.04938271604938272,31.506172839506174,0)" xlink:href="#aW"/></g><path fill="#333" d="M25-224v-37h50v37H25zM25 0v-190h50V0H25" id="aX"/><g id="r"><use transform="matrix(0.04938271604938272,0,0,0.04938271604938272,0,0)" xlink:href="#aU"/><use transform="matrix(0.04938271604938272,0,0,0.04938271604938272,9.876543209876544,0)" xlink:href="#aV"/><use transform="matrix(0.04938271604938272,0,0,0.04938271604938272,20.69135802469136,0)" xlink:href="#aX"/><use transform="matrix(0.04938271604938272,0,0,0.04938271604938272,25.629629629629633,0)" xlink:href="#aW"/></g><path fill="#3a414a" d="M205 0l-28-72H64L36 0H1l101-248h38L239 0h-34zm-38-99l-47-123c-12 45-31 82-46 123h93" id="aY"/><path fill="#3a414a" d="M210-169c-67 3-38 105-44 169h-31v-121c0-29-5-50-35-48C34-165 62-65 56 0H25l-1-190h30c1 10-1 24 2 32 10-44 99-50 107 0 11-21 27-35 58-36 85-2 47 119 55 194h-31v-121c0-29-5-49-35-48" id="aZ"/><path fill="#3a414a" d="M9 0v-24l116-142H16v-24h144v24L44-24h123V0H9" id="ba"/><g id="s"><use transform="matrix(0.06172839506172839,0,0,0.06172839506172839,0,0)" xlink:href="#aY"/><use transform="matrix(0.06172839506172839,0,0,0.06172839506172839,14.814814814814813,0)" xlink:href="#aZ"/><use transform="matrix(0.06172839506172839,0,0,0.06172839506172839,33.2716049382716,0)" xlink:href="#aF"/><use transform="matrix(0.06172839506172839,0,0,0.06172839506172839,45.61728395061728,0)" xlink:href="#ba"/><use transform="matrix(0.06172839506172839,0,0,0.06172839506172839,56.72839506172839,0)" xlink:href="#az"/><use transform="matrix(0.06172839506172839,0,0,0.06172839506172839,69.07407407407408,0)" xlink:href="#aA"/></g><path fill="#3a414a" d="M233-177c-1 41-23 64-60 70L243 0h-38l-65-103H63V0H30v-248c88 3 205-21 203 71zM63-129c60-2 137 13 137-47 0-61-80-42-137-45v92" id="bb"/><g id="t"><use transform="matrix(0.06172839506172839,0,0,0.06172839506172839,0,0)" xlink:href="#bb"/><use transform="matrix(0.06172839506172839,0,0,0.06172839506172839,15.987654320987653,0)" xlink:href="#aR"/><use transform="matrix(0.06172839506172839,0,0,0.06172839506172839,31.975308641975307,0)" xlink:href="#aT"/></g><g id="u"><use transform="matrix(0.06172839506172839,0,0,0.06172839506172839,0,0)" xlink:href="#aY"/><use transform="matrix(0.06172839506172839,0,0,0.06172839506172839,14.814814814814813,0)" xlink:href="#aZ"/><use transform="matrix(0.06172839506172839,0,0,0.06172839506172839,33.2716049382716,0)" xlink:href="#aF"/><use transform="matrix(0.06172839506172839,0,0,0.06172839506172839,45.61728395061728,0)" xlink:href="#ba"/><use transform="matrix(0.06172839506172839,0,0,0.06172839506172839,56.72839506172839,0)" xlink:href="#az"/><use transform="matrix(0.06172839506172839,0,0,0.06172839506172839,69.07407407407408,0)" xlink:href="#aA"/></g><path fill="#3a414a" d="M179-190L93 31C79 59 56 82 12 73V49c39 6 53-20 64-50L1-190h34L92-34l54-156h33" id="bc"/><g id="v"><use transform="matrix(0.06172839506172839,0,0,0.06172839506172839,0,0)" xlink:href="#aR"/><use transform="matrix(0.06172839506172839,0,0,0.06172839506172839,15.987654320987653,0)" xlink:href="#bc"/><use transform="matrix(0.06172839506172839,0,0,0.06172839506172839,27.098765432098766,0)" xlink:href="#aA"/><use transform="matrix(0.06172839506172839,0,0,0.06172839506172839,39.44444444444444,0)" xlink:href="#aF"/><use transform="matrix(0.06172839506172839,0,0,0.06172839506172839,51.79012345679012,0)" xlink:href="#aZ"/><use transform="matrix(0.06172839506172839,0,0,0.06172839506172839,70.24691358024691,0)" xlink:href="#az"/><use transform="matrix(0.06172839506172839,0,0,0.06172839506172839,82.5925925925926,0)" xlink:href="#aR"/><use transform="matrix(0.06172839506172839,0,0,0.06172839506172839,98.58024691358025,0)" xlink:href="#aE"/></g><linearGradient gradientUnits="userSpaceOnUse" id="w" x1="1260" y1="589" x2="1380" y2="469"><stop offset="0%" stop-color="#b0084d"/><stop offset="100%" stop-color="#ff4f8b"/></linearGradient><linearGradient gradientUnits="userSpaceOnUse" id="x" x1="260" y1="820" x2="320" y2="758"><stop offset="0%" stop-color="#bd0816"/><stop offset="100%" stop-color="#ff5252"/></linearGradient><path d="M205 0l-28-72H64L36 0H1l101-248h38L239 0h-34zm-38-99l-47-123c-12 45-31 82-46 123h93" id="bd"/><path d="M84 4C-5 8 30-112 23-190h32v120c0 31 7 50 39 49 72-2 45-101 50-169h31l1 190h-30c-1-10 1-25-2-33-11 22-28 36-60 37" id="be"/><path d="M59-47c-2 24 18 29 38 22v24C64 9 27 4 27-40v-127H5v-23h24l9-43h21v43h35v23H59v120" id="bf"/><path d="M106-169C34-169 62-67 57 0H25v-261h32l-1 103c12-21 28-36 61-36 89 0 53 116 60 194h-32v-121c2-32-8-49-39-48" id="bg"/><path d="M100-194c63 0 86 42 84 106H49c0 40 14 67 53 68 26 1 43-12 49-29l28 8c-11 28-37 45-77 45C44 4 14-33 15-96c1-61 26-98 85-98zm52 81c6-60-76-77-97-28-3 7-6 17-6 28h103" id="bh"/><path d="M117-194c89-4 53 116 60 194h-32v-121c0-31-8-49-39-48C34-167 62-67 57 0H25l-1-190h30c1 10-1 24 2 32 11-22 29-35 61-36" id="bi"/><path d="M24-231v-30h32v30H24zM24 0v-190h32V0H24" id="bj"/><path d="M96-169c-40 0-48 33-48 73s9 75 48 75c24 0 41-14 43-38l32 2c-6 37-31 61-74 61-59 0-76-41-82-99-10-93 101-131 147-64 4 7 5 14 7 22l-32 3c-4-21-16-35-41-35" id="bk"/><path d="M141-36C126-15 110 5 73 4 37 3 15-17 15-53c-1-64 63-63 125-63 3-35-9-54-41-54-24 1-41 7-42 31l-33-3c5-37 33-52 76-52 45 0 72 20 72 64v82c-1 20 7 32 28 27v20c-31 9-61-2-59-35zM48-53c0 20 12 33 32 33 41-3 63-29 60-74-43 2-92-5-92 41" id="bl"/><path d="M100-194c62-1 85 37 85 99 1 63-27 99-86 99S16-35 15-95c0-66 28-99 85-99zM99-20c44 1 53-31 53-75 0-43-8-75-51-75s-53 32-53 75 10 74 51 75" id="bm"/><g id="y"><use transform="matrix(0.03765432098765432,0,0,0.03765432098765432,0,0)" xlink:href="#bd"/><use transform="matrix(0.03765432098765432,0,0,0.03765432098765432,9.037037037037036,0)" xlink:href="#be"/><use transform="matrix(0.03765432098765432,0,0,0.03765432098765432,16.5679012345679,0)" xlink:href="#bf"/><use transform="matrix(0.03765432098765432,0,0,0.03765432098765432,20.33333333333333,0)" xlink:href="#bg"/><use transform="matrix(0.03765432098765432,0,0,0.03765432098765432,27.86419753086419,0)" xlink:href="#bh"/><use transform="matrix(0.03765432098765432,0,0,0.03765432098765432,35.395061728395056,0)" xlink:href="#bi"/><use transform="matrix(0.03765432098765432,0,0,0.03765432098765432,42.925925925925924,0)" xlink:href="#bf"/><use transform="matrix(0.03765432098765432,0,0,0.03765432098765432,46.691358024691354,0)" xlink:href="#bj"/><use transform="matrix(0.03765432098765432,0,0,0.03765432098765432,49.66604938271605,0)" xlink:href="#bk"/><use transform="matrix(0.03765432098765432,0,0,0.03765432098765432,56.443827160493825,0)" xlink:href="#bl"/><use transform="matrix(0.03765432098765432,0,0,0.03765432098765432,63.974691358024685,0)" xlink:href="#bf"/><use transform="matrix(0.03765432098765432,0,0,0.03765432098765432,67.74012345679012,0)" xlink:href="#bj"/><use transform="matrix(0.03765432098765432,0,0,0.03765432098765432,70.7148148148148,0)" xlink:href="#bm"/><use transform="matrix(0.03765432098765432,0,0,0.03765432098765432,78.24567901234566,0)" xlink:href="#bi"/></g><path fill="#3a414a" d="M108 0H70L1-190h34L89-25l56-165h34" id="bn"/><path fill="#3a414a" d="M135-143c-3-34-86-38-87 0 15 53 115 12 119 90S17 21 10-45l28-5c4 36 97 45 98 0-10-56-113-15-118-90-4-57 82-63 122-42 12 7 21 19 24 35" id="bo"/><g id="z"><use transform="matrix(0.06172839506172839,0,0,0.06172839506172839,0,0)" xlink:href="#aT"/><use transform="matrix(0.06172839506172839,0,0,0.06172839506172839,14.814814814814813,0)" xlink:href="#aC"/><use transform="matrix(0.06172839506172839,0,0,0.06172839506172839,27.160493827160494,0)" xlink:href="#ay"/><use transform="matrix(0.06172839506172839,0,0,0.06172839506172839,34.50617283950617,0)" xlink:href="#bn"/><use transform="matrix(0.06172839506172839,0,0,0.06172839506172839,45.61728395061728,0)" xlink:href="#aC"/><use transform="matrix(0.06172839506172839,0,0,0.06172839506172839,57.962962962962955,0)" xlink:href="#ay"/><use transform="matrix(0.06172839506172839,0,0,0.06172839506172839,65.30864197530863,0)" xlink:href="#aQ"/><use transform="matrix(0.06172839506172839,0,0,0.06172839506172839,70.18518518518518,0)" xlink:href="#aC"/><use transform="matrix(0.06172839506172839,0,0,0.06172839506172839,82.53086419753086,0)" xlink:href="#bo"/><use transform="matrix(0.06172839506172839,0,0,0.06172839506172839,93.64197530864197,0)" xlink:href="#bo"/></g><path fill="#3a414a" d="M212-179c-10-28-35-45-73-45-59 0-87 40-87 99 0 60 29 101 89 101 43 0 62-24 78-52l27 14C228-24 195 4 139 4 59 4 22-46 18-125c-6-104 99-153 187-111 19 9 31 26 39 46" id="bp"/><path fill="#3a414a" d="M106-169C34-169 62-67 57 0H25v-261h32l-1 103c12-21 28-36 61-36 89 0 53 116 60 194h-32v-121c2-32-8-49-39-48" id="bq"/><path fill="#3a414a" d="M24-231v-30h32v30H24zM24 0v-190h32V0H24" id="br"/><path fill="#3a414a" d="M177-190C167-65 218 103 67 71c-23-6-38-20-44-43l32-5c15 47 100 32 89-28v-30C133-14 115 1 83 1 29 1 15-40 15-95c0-56 16-97 71-98 29-1 48 16 59 35 1-10 0-23 2-32h30zM94-22c36 0 50-32 50-73 0-42-14-75-50-75-39 0-46 34-46 75s6 73 46 73" id="bs"/><g id="A"><use transform="matrix(0.06172839506172839,0,0,0.06172839506172839,0,0)" xlink:href="#bp"/><use transform="matrix(0.06172839506172839,0,0,0.06172839506172839,15.987654320987653,0)" xlink:href="#aF"/><use transform="matrix(0.06172839506172839,0,0,0.06172839506172839,28.333333333333332,0)" xlink:href="#aG"/><use transform="matrix(0.06172839506172839,0,0,0.06172839506172839,39.44444444444444,0)" xlink:href="#bq"/><use transform="matrix(0.06172839506172839,0,0,0.06172839506172839,51.79012345679012,0)" xlink:href="#br"/><use transform="matrix(0.06172839506172839,0,0,0.06172839506172839,56.666666666666664,0)" xlink:href="#aA"/><use transform="matrix(0.06172839506172839,0,0,0.06172839506172839,69.01234567901234,0)" xlink:href="#bs"/></g><path fill="#333" d="M135-150c-39-12-60 13-60 57V0H25l-1-190h47c2 13-1 29 3 40 6-28 27-53 61-41v41" id="bt"/><path fill="#333" d="M220-157c-53 9-28 100-34 157h-49v-107c1-27-5-49-29-50C55-147 81-57 75 0H25l-1-190h47c2 12-1 28 3 38 10-53 101-56 108 0 13-22 24-43 59-42 82 1 51 116 57 194h-49v-107c-1-25-5-48-29-50" id="bu"/><path fill="#333" d="M123 10C108 53 80 86 19 72V37c35 8 53-11 59-39L3-190h52l48 148c12-52 28-100 44-148h51" id="bv"/><g id="B"><use transform="matrix(0.04938271604938272,0,0,0.04938271604938272,0,0)" xlink:href="#aN"/><use transform="matrix(0.04938271604938272,0,0,0.04938271604938272,11.851851851851853,0)" xlink:href="#bt"/><use transform="matrix(0.04938271604938272,0,0,0.04938271604938272,18.765432098765434,0)" xlink:href="#aX"/><use transform="matrix(0.04938271604938272,0,0,0.04938271604938272,23.703703703703706,0)" xlink:href="#bu"/><use transform="matrix(0.04938271604938272,0,0,0.04938271604938272,39.50617283950618,0)" xlink:href="#aU"/><use transform="matrix(0.04938271604938272,0,0,0.04938271604938272,49.38271604938272,0)" xlink:href="#bt"/><use transform="matrix(0.04938271604938272,0,0,0.04938271604938272,56.2962962962963,0)" xlink:href="#bv"/></g><path fill="#333" d="M140-251c80 0 125 45 125 126 0 70-33 111-92 124 6 28 34 38 68 31l-1 36C177 83 129 55 120 2 51-6 15-50 15-125c0-81 44-126 125-126zm-1 214c52 0 73-35 73-88 0-50-21-86-72-86-52 0-73 35-73 86s22 88 72 88" id="bw"/><path fill="#333" d="M85 4C-2 5 27-109 22-190h50c7 57-23 150 33 157 60-5 35-97 40-157h50l1 190h-47c-2-12 1-28-3-38-12 25-28 42-61 42" id="bx"/><path fill="#333" d="M185-48c-13 30-37 53-82 52C43 2 14-33 14-96s30-98 90-98c62 0 83 45 84 108H66c0 31 8 55 39 56 18 0 30-7 34-22zm-45-69c5-46-57-63-70-21-2 6-4 13-4 21h74" id="by"/><path fill="#333" d="M137-138c1-29-70-34-71-4 15 46 118 7 119 86 1 83-164 76-172 9l43-7c4 19 20 25 44 25 33 8 57-30 24-41C81-84 22-81 20-136c-2-80 154-74 161-7" id="bz"/><g id="C"><use transform="matrix(0.04938271604938272,0,0,0.04938271604938272,0,0)" xlink:href="#bw"/><use transform="matrix(0.04938271604938272,0,0,0.04938271604938272,13.827160493827162,0)" xlink:href="#bx"/><use transform="matrix(0.04938271604938272,0,0,0.04938271604938272,24.641975308641975,0)" xlink:href="#by"/><use transform="matrix(0.04938271604938272,0,0,0.04938271604938272,34.51851851851852,0)" xlink:href="#bt"/><use transform="matrix(0.04938271604938272,0,0,0.04938271604938272,41.4320987654321,0)" xlink:href="#aX"/><use transform="matrix(0.04938271604938272,0,0,0.04938271604938272,46.370370370370374,0)" xlink:href="#by"/><use transform="matrix(0.04938271604938272,0,0,0.04938271604938272,56.24691358024692,0)" xlink:href="#bz"/></g><path d="M266 0h-40l-56-210L115 0H75L2-248h35L96-30l15-64 43-154h32l59 218 59-218h35" id="bA"/><path d="M185-189c-5-48-123-54-124 2 14 75 158 14 163 119 3 78-121 87-175 55-17-10-28-26-33-46l33-7c5 56 141 63 141-1 0-78-155-14-162-118-5-82 145-84 179-34 5 7 8 16 11 25" id="bB"/><g id="D"><use transform="matrix(0.05,0,0,0.05,0,0)" xlink:href="#bd"/><use transform="matrix(0.05,0,0,0.05,11.35,0)" xlink:href="#bA"/><use transform="matrix(0.05,0,0,0.05,28.299999999999997,0)" xlink:href="#bB"/></g><path d="M115-194c55 1 70 41 70 98S169 2 115 4C84 4 66-9 55-30l1 105H24l-1-265h31l2 30c10-21 28-34 59-34zm-8 174c40 0 45-34 45-75s-6-73-45-74c-42 0-51 32-51 76 0 43 10 73 51 73" id="bC"/><path d="M179-190L93 31C79 59 56 82 12 73V49c39 6 53-20 64-50L1-190h34L92-34l54-156h33" id="bD"/><g id="E"><use transform="matrix(0.05,0,0,0.05,0,0)" xlink:href="#bd"/><use transform="matrix(0.05,0,0,0.05,12,0)" xlink:href="#bC"/><use transform="matrix(0.05,0,0,0.05,22,0)" xlink:href="#bC"/><use transform="matrix(0.05,0,0,0.05,32,0)" xlink:href="#bB"/><use transform="matrix(0.05,0,0,0.05,44,0)" xlink:href="#bD"/><use transform="matrix(0.05,0,0,0.05,53,0)" xlink:href="#bi"/><use transform="matrix(0.05,0,0,0.05,63,0)" xlink:href="#bk"/></g><path fill="#333" d="M110-194c64 0 96 36 96 99 0 64-35 99-97 99-61 0-95-36-95-99 0-62 34-99 96-99zm-1 164c35 0 45-28 45-65 0-40-10-65-43-65-34 0-45 26-45 65 0 36 10 65 43 65" id="bE"/><g id="F"><use transform="matrix(0.04938271604938272,0,0,0.04938271604938272,0,0)" xlink:href="#bE"/><use transform="matrix(0.04938271604938272,0,0,0.04938271604938272,10.814814814814815,0)" xlink:href="#bt"/></g><path fill="#333" d="M24-248c120-7 223 5 221 122C244-46 201 0 124 0H24v-248zM76-40c74 7 117-18 117-86 0-67-45-88-117-82v168" id="bF"/><path fill="#333" d="M230 0l2-204L168 0h-37L68-204 70 0H24v-248h70l56 185 57-185h69V0h-46" id="bG"/><g id="G"><use transform="matrix(0.04938271604938272,0,0,0.04938271604938272,0,0)" xlink:href="#bF"/><use transform="matrix(0.04938271604938272,0,0,0.04938271604938272,12.790123456790125,0)" xlink:href="#bG"/></g><g id="H"><use transform="matrix(0.04938271604938272,0,0,0.04938271604938272,0,0)" xlink:href="#bw"/><use transform="matrix(0.04938271604938272,0,0,0.04938271604938272,13.827160493827162,0)" xlink:href="#bx"/><use transform="matrix(0.04938271604938272,0,0,0.04938271604938272,24.641975308641975,0)" xlink:href="#by"/><use transform="matrix(0.04938271604938272,0,0,0.04938271604938272,34.51851851851852,0)" xlink:href="#bt"/><use transform="matrix(0.04938271604938272,0,0,0.04938271604938272,41.4320987654321,0)" xlink:href="#aX"/><use transform="matrix(0.04938271604938272,0,0,0.04938271604938272,46.370370370370374,0)" xlink:href="#by"/><use transform="matrix(0.04938271604938272,0,0,0.04938271604938272,56.24691358024692,0)" xlink:href="#bz"/></g><path fill="#333" d="M190-63c-7 42-38 67-86 67-59 0-84-38-90-98-12-110 154-137 174-36l-49 2c-2-19-15-32-35-32-30 0-35 28-38 64-6 74 65 87 74 30" id="bH"/><path fill="#333" d="M115-3C79 11 28 4 28-45v-112H4v-33h27l15-45h31v45h36v33H77v99c-1 23 16 31 38 25v30" id="bI"/><g id="I"><use transform="matrix(0.04938271604938272,0,0,0.04938271604938272,0,0)" xlink:href="#bF"/><use transform="matrix(0.04938271604938272,0,0,0.04938271604938272,12.790123456790125,0)" xlink:href="#aX"/><use transform="matrix(0.04938271604938272,0,0,0.04938271604938272,17.7283950617284,0)" xlink:href="#bt"/><use transform="matrix(0.04938271604938272,0,0,0.04938271604938272,24.64197530864198,0)" xlink:href="#by"/><use transform="matrix(0.04938271604938272,0,0,0.04938271604938272,34.518518518518526,0)" xlink:href="#bH"/><use transform="matrix(0.04938271604938272,0,0,0.04938271604938272,44.39506172839507,0)" xlink:href="#bI"/></g><path fill="#333" d="M195-6C206 82 75 100 31 46c-4-6-6-13-8-21l49-6c3 16 16 24 34 25 40 0 42-37 40-79-11 22-30 35-61 35-53 0-70-43-70-97 0-56 18-96 73-97 30 0 46 14 59 34l2-30h47zm-90-29c32 0 41-27 41-63 0-35-9-62-40-62-32 0-39 29-40 63 0 36 9 62 39 62" id="bJ"/><path fill="#333" d="M135-194c87-1 58 113 63 194h-50c-7-57 23-157-34-157-59 0-34 97-39 157H25l-1-190h47c2 12-1 28 3 38 12-26 28-41 61-42" id="bK"/><g id="J"><use transform="matrix(0.04938271604938272,0,0,0.04938271604938272,0,0)" xlink:href="#bG"/><use transform="matrix(0.04938271604938272,0,0,0.04938271604938272,14.765432098765434,0)" xlink:href="#by"/><use transform="matrix(0.04938271604938272,0,0,0.04938271604938272,24.641975308641978,0)" xlink:href="#bz"/><use transform="matrix(0.04938271604938272,0,0,0.04938271604938272,34.51851851851852,0)" xlink:href="#bz"/><use transform="matrix(0.04938271604938272,0,0,0.04938271604938272,44.39506172839506,0)" xlink:href="#aU"/><use transform="matrix(0.04938271604938272,0,0,0.04938271604938272,54.27160493827161,0)" xlink:href="#bJ"/><use transform="matrix(0.04938271604938272,0,0,0.04938271604938272,65.08641975308642,0)" xlink:href="#aX"/><use transform="matrix(0.04938271604938272,0,0,0.04938271604938272,70.02469135802468,0)" xlink:href="#bK"/><use transform="matrix(0.04938271604938272,0,0,0.04938271604938272,80.83950617283949,0)" xlink:href="#bJ"/></g><path fill="#3a414a" d="M136-208V0H84v-208H4v-40h212v40h-80" id="bL"/><path fill="#3a414a" d="M114-157C55-157 80-60 75 0H25v-261h50l-1 109c12-26 28-41 61-42 86-1 58 113 63 194h-50c-7-57 23-157-34-157" id="bM"/><path fill="#3a414a" d="M25-224v-37h50v37H25zM25 0v-190h50V0H25" id="bN"/><path fill="#3a414a" d="M135-150c-39-12-60 13-60 57V0H25l-1-190h47c2 13-1 29 3 40 6-28 27-53 61-41v41" id="bO"/><path fill="#3a414a" d="M88-194c31-1 46 15 58 34l-1-101h50l1 261h-48c-2-10 0-23-3-31C134-8 116 4 84 4 32 4 16-41 15-95c0-56 19-97 73-99zm17 164c33 0 40-30 41-66 1-37-9-64-41-64s-38 30-39 65c0 43 13 65 39 65" id="bP"/><g id="K"><use transform="matrix(0.06172839506172839,0,0,0.06172839506172839,0,0)" xlink:href="#bL"/><use transform="matrix(0.06172839506172839,0,0,0.06172839506172839,13.518518518518517,0)" xlink:href="#bM"/><use transform="matrix(0.06172839506172839,0,0,0.06172839506172839,27.037037037037035,0)" xlink:href="#bN"/><use transform="matrix(0.06172839506172839,0,0,0.06172839506172839,33.20987654320987,0)" xlink:href="#bO"/><use transform="matrix(0.06172839506172839,0,0,0.06172839506172839,41.85185185185185,0)" xlink:href="#bP"/></g><path fill="#3a414a" d="M24-248c93 1 206-16 204 79-1 75-69 88-152 82V0H24v-248zm52 121c47 0 100 7 100-41 0-47-54-39-100-39v80" id="bQ"/><path fill="#3a414a" d="M133-34C117-15 103 5 69 4 32 3 11-16 11-54c-1-60 55-63 116-61 1-26-3-47-28-47-18 1-26 9-28 27l-52-2c7-38 36-58 82-57s74 22 75 68l1 82c-1 14 12 18 25 15v27c-30 8-71 5-69-32zm-48 3c29 0 43-24 42-57-32 0-66-3-65 30 0 17 8 27 23 27" id="bR"/><path fill="#3a414a" d="M115-3C79 11 28 4 28-45v-112H4v-33h27l15-45h31v45h36v33H77v99c-1 23 16 31 38 25v30" id="bS"/><path fill="#3a414a" d="M123 10C108 53 80 86 19 72V37c35 8 53-11 59-39L3-190h52l48 148c12-52 28-100 44-148h51" id="bT"/><g id="L"><use transform="matrix(0.06172839506172839,0,0,0.06172839506172839,0,0)" xlink:href="#bQ"/><use transform="matrix(0.06172839506172839,0,0,0.06172839506172839,14.814814814814813,0)" xlink:href="#bR"/><use transform="matrix(0.06172839506172839,0,0,0.06172839506172839,27.160493827160494,0)" xlink:href="#bO"/><use transform="matrix(0.06172839506172839,0,0,0.06172839506172839,35.80246913580247,0)" xlink:href="#bS"/><use transform="matrix(0.06172839506172839,0,0,0.06172839506172839,43.148148148148145,0)" xlink:href="#bT"/></g><path fill="#3a414a" d="M169-182c-1-43-94-46-97-3 18 66 151 10 154 114 3 95-165 93-204 36-6-8-10-19-12-30l50-8c3 46 112 56 116 5-17-69-150-10-154-114-4-87 153-88 188-35 5 8 8 18 10 28" id="bU"/><path fill="#3a414a" d="M185-48c-13 30-37 53-82 52C43 2 14-33 14-96s30-98 90-98c62 0 83 45 84 108H66c0 31 8 55 39 56 18 0 30-7 34-22zm-45-69c5-46-57-63-70-21-2 6-4 13-4 21h74" id="bV"/><path fill="#3a414a" d="M128 0H69L1-190h53L99-40l48-150h52" id="bW"/><path fill="#3a414a" d="M190-63c-7 42-38 67-86 67-59 0-84-38-90-98-12-110 154-137 174-36l-49 2c-2-19-15-32-35-32-30 0-35 28-38 64-6 74 65 87 74 30" id="bX"/><path fill="#3a414a" d="M137-138c1-29-70-34-71-4 15 46 118 7 119 86 1 83-164 76-172 9l43-7c4 19 20 25 44 25 33 8 57-30 24-41C81-84 22-81 20-136c-2-80 154-74 161-7" id="bY"/><g id="M"><use transform="matrix(0.06172839506172839,0,0,0.06172839506172839,0,0)" xlink:href="#bU"/><use transform="matrix(0.06172839506172839,0,0,0.06172839506172839,14.814814814814813,0)" xlink:href="#bV"/><use transform="matrix(0.06172839506172839,0,0,0.06172839506172839,27.160493827160494,0)" xlink:href="#bO"/><use transform="matrix(0.06172839506172839,0,0,0.06172839506172839,35.80246913580247,0)" xlink:href="#bW"/><use transform="matrix(0.06172839506172839,0,0,0.06172839506172839,48.148148148148145,0)" xlink:href="#bN"/><use transform="matrix(0.06172839506172839,0,0,0.06172839506172839,54.32098765432099,0)" xlink:href="#bX"/><use transform="matrix(0.06172839506172839,0,0,0.06172839506172839,66.66666666666667,0)" xlink:href="#bV"/><use transform="matrix(0.06172839506172839,0,0,0.06172839506172839,79.01234567901236,0)" xlink:href="#bY"/></g><g id="N"><use transform="matrix(0.06172839506172839,0,0,0.06172839506172839,0,0)" xlink:href="#bp"/><use transform="matrix(0.06172839506172839,0,0,0.06172839506172839,15.987654320987653,0)" xlink:href="#aQ"/><use transform="matrix(0.06172839506172839,0,0,0.06172839506172839,20.864197530864196,0)" xlink:href="#br"/><use transform="matrix(0.06172839506172839,0,0,0.06172839506172839,25.74074074074074,0)" xlink:href="#aC"/><use transform="matrix(0.06172839506172839,0,0,0.06172839506172839,38.08641975308642,0)" xlink:href="#aA"/><use transform="matrix(0.06172839506172839,0,0,0.06172839506172839,50.432098765432094,0)" xlink:href="#aB"/></g></defs></g></svg>